<svg width="62" height="66" viewBox="0 0 62 66" fill="none" xmlns="http://www.w3.org/2000/svg">
<path opacity="0.997" fill-rule="evenodd" clip-rule="evenodd" d="M11.9023 2.70703C11.9023 13.7644 11.9023 24.8216 11.9023 35.8789C11.4645 35.8549 11.0348 35.8836 10.6133 35.9648C10.6419 25.0077 10.6133 14.065 10.5273 3.13672C10.9455 2.89246 11.4038 2.74923 11.9023 2.70703Z" fill="#0AB3FF"/>
<path opacity="0.995" fill-rule="evenodd" clip-rule="evenodd" d="M11.9023 2.70703C12.1028 2.70703 12.3034 2.70703 12.5039 2.70703C12.5039 13.7356 12.5039 24.7644 12.5039 35.793C12.7238 35.767 12.9244 35.7957 13.1055 35.8789C12.7044 35.8789 12.3034 35.8789 11.9023 35.8789C11.9023 24.8216 11.9023 13.7644 11.9023 2.70703Z" fill="#0DAFFF"/>
<path opacity="0.997" fill-rule="evenodd" clip-rule="evenodd" d="M12.5039 2.70703C13.0769 2.70703 13.6497 2.70703 14.2227 2.70703C14.2227 4.3112 14.2227 5.91536 14.2227 7.51953C13.8866 7.49915 13.5715 7.57076 13.2773 7.73438C13.1728 7.87597 13.1012 8.03352 13.0625 8.20703C13.0052 10.0403 13.0052 11.8737 13.0625 13.707C13.1742 14.1723 13.475 14.4014 13.9648 14.3945C13.9648 21.5273 13.9648 28.6602 13.9648 35.793C13.8274 35.7699 13.7129 35.7986 13.6211 35.8789C13.4492 35.8789 13.2773 35.8789 13.1055 35.8789C12.9244 35.7957 12.7238 35.767 12.5039 35.793C12.5039 24.7644 12.5039 13.7356 12.5039 2.70703Z" fill="#10ABFF"/>
<path fill-rule="evenodd" clip-rule="evenodd" d="M14.2227 2.70703C14.7669 2.70703 15.3112 2.70703 15.8555 2.70703C15.8555 4.3112 15.8555 5.91536 15.8555 7.51953C15.3112 7.51953 14.7669 7.51953 14.2227 7.51953C14.2227 5.91536 14.2227 4.3112 14.2227 2.70703Z" fill="#15A5FF"/>
<path fill-rule="evenodd" clip-rule="evenodd" d="M15.8555 2.70703C16.3997 2.70703 16.944 2.70703 17.4883 2.70703C17.4883 4.3112 17.4883 5.91536 17.4883 7.51953C16.944 7.51953 16.3997 7.51953 15.8555 7.51953C15.8555 5.91536 15.8555 4.3112 15.8555 2.70703Z" fill="#1A9FFF"/>
<path fill-rule="evenodd" clip-rule="evenodd" d="M17.4883 2.70703C17.7461 2.70703 18.0039 2.70703 18.2617 2.70703C18.2617 4.3112 18.2617 5.91536 18.2617 7.51953C18.0039 7.51953 17.7461 7.51953 17.4883 7.51953C17.4883 5.91536 17.4883 4.3112 17.4883 2.70703Z" fill="#1E9BFF"/>
<path fill-rule="evenodd" clip-rule="evenodd" d="M18.2617 2.70703C18.6341 2.70703 19.0065 2.70703 19.3789 2.70703C19.3789 4.3112 19.3789 5.91536 19.3789 7.51953C19.0065 7.51953 18.6341 7.51953 18.2617 7.51953C18.2617 5.91536 18.2617 4.3112 18.2617 2.70703Z" fill="#2197FF"/>
<path fill-rule="evenodd" clip-rule="evenodd" d="M19.3789 2.70703C19.694 2.70703 20.0091 2.70703 20.3242 2.70703C20.3242 4.3112 20.3242 5.91536 20.3242 7.51953C20.0091 7.51953 19.694 7.51953 19.3789 7.51953C19.3789 5.91536 19.3789 4.3112 19.3789 2.70703Z" fill="#2493FF"/>
<path fill-rule="evenodd" clip-rule="evenodd" d="M20.3242 2.70703C20.5534 2.70703 20.7825 2.70703 21.0117 2.70703C21.0117 4.3112 21.0117 5.91536 21.0117 7.51953C20.7825 7.51953 20.5534 7.51953 20.3242 7.51953C20.3242 5.91536 20.3242 4.3112 20.3242 2.70703Z" fill="#2690FF"/>
<path fill-rule="evenodd" clip-rule="evenodd" d="M21.0117 2.70703C21.556 2.70703 22.1003 2.70703 22.6445 2.70703C22.6445 4.3112 22.6445 5.91536 22.6445 7.51953C22.1003 7.51953 21.556 7.51953 21.0117 7.51953C21.0117 5.91536 21.0117 4.3112 21.0117 2.70703Z" fill="#2A8CFF"/>
<path fill-rule="evenodd" clip-rule="evenodd" d="M22.6445 2.70703C23.1888 2.70703 23.7331 2.70703 24.2773 2.70703C24.2773 4.3112 24.2773 5.91536 24.2773 7.51953C23.7331 7.51953 23.1888 7.51953 22.6445 7.51953C22.6445 5.91536 22.6445 4.3112 22.6445 2.70703Z" fill="#2F86FF"/>
<path fill-rule="evenodd" clip-rule="evenodd" d="M24.2773 2.70703C24.9075 2.70703 25.5378 2.70703 26.168 2.70703C26.168 4.3112 26.168 5.91536 26.168 7.51953C25.5378 7.51953 24.9075 7.51953 24.2773 7.51953C24.2773 5.91536 24.2773 4.3112 24.2773 2.70703Z" fill="#3480FF"/>
<path fill-rule="evenodd" clip-rule="evenodd" d="M26.168 2.70703C26.7122 2.70703 27.2565 2.70703 27.8008 2.70703C27.8008 4.3112 27.8008 5.91536 27.8008 7.51953C27.2565 7.51953 26.7122 7.51953 26.168 7.51953C26.168 5.91536 26.168 4.3112 26.168 2.70703Z" fill="#3979FF"/>
<path fill-rule="evenodd" clip-rule="evenodd" d="M27.8008 2.70703C28.0872 2.70703 28.3737 2.70703 28.6602 2.70703C28.6602 4.3112 28.6602 5.91536 28.6602 7.51953C28.3737 7.51953 28.0872 7.51953 27.8008 7.51953C27.8008 5.91536 27.8008 4.3112 27.8008 2.70703Z" fill="#3D75FF"/>
<path fill-rule="evenodd" clip-rule="evenodd" d="M28.6602 2.70703C28.918 2.70703 29.1758 2.70703 29.4336 2.70703C29.4336 4.3112 29.4336 5.91536 29.4336 7.51953C29.1758 7.51953 28.918 7.51953 28.6602 7.51953C28.6602 5.91536 28.6602 4.3112 28.6602 2.70703Z" fill="#3F72FF"/>
<path opacity="0.998" fill-rule="evenodd" clip-rule="evenodd" d="M29.4336 2.70703C29.8347 2.70703 30.2356 2.70703 30.6367 2.70703C30.6367 4.36849 30.6367 6.02995 30.6367 7.69141C30.2494 7.55282 29.8484 7.49553 29.4336 7.51953C29.4336 5.91536 29.4336 4.3112 29.4336 2.70703Z" fill="#426EFF"/>
<path opacity="0.995" fill-rule="evenodd" clip-rule="evenodd" d="M30.6367 2.70703C30.78 2.70703 30.9231 2.70703 31.0664 2.70703C31.0664 13.7356 31.0664 24.7644 31.0664 35.793C30.9555 35.7726 30.8695 35.8012 30.8086 35.8789C30.6367 35.8789 30.4648 35.8789 30.293 35.8789C30.3847 35.7986 30.4993 35.7699 30.6367 35.793C30.6367 28.6028 30.6367 21.4128 30.6367 14.2227C30.7307 14.0629 30.8023 13.891 30.8516 13.707C30.9089 11.8737 30.9089 10.0403 30.8516 8.20703C30.8023 8.02307 30.7307 7.8512 30.6367 7.69141C30.6367 6.02995 30.6367 4.36849 30.6367 2.70703Z" fill="#456BFF"/>
<path opacity="0.998" fill-rule="evenodd" clip-rule="evenodd" d="M31.0664 2.70703C31.582 2.70703 32.0977 2.70703 32.6133 2.70703C32.6133 13.7356 32.6133 24.7644 32.6133 35.793C32.3934 35.767 32.1928 35.7957 32.0117 35.8789C31.6106 35.8789 31.2097 35.8789 30.8086 35.8789C30.8695 35.8012 30.9555 35.7726 31.0664 35.793C31.0664 24.7644 31.0664 13.7356 31.0664 2.70703Z" fill="#4867FF"/>
<path opacity="0.993" fill-rule="evenodd" clip-rule="evenodd" d="M32.6133 2.70703C32.7565 2.70703 32.8997 2.70703 33.043 2.70703C33.043 13.7356 33.043 24.7644 33.043 35.793C33.1804 35.7699 33.2949 35.7986 33.3867 35.8789C32.9284 35.8789 32.47 35.8789 32.0117 35.8789C32.1928 35.7957 32.3934 35.767 32.6133 35.793C32.6133 24.7644 32.6133 13.7356 32.6133 2.70703Z" fill="#4B64FF"/>
<path opacity="0.999" fill-rule="evenodd" clip-rule="evenodd" d="M33.043 2.70703C33.5872 2.70703 34.1315 2.70703 34.6758 2.70703C34.6758 15.5403 34.6758 28.3737 34.6758 41.207C34.1315 41.207 33.5872 41.207 33.043 41.207C33.043 40.7487 33.043 40.2903 33.043 39.832C33.1575 39.832 33.2722 39.832 33.3867 39.832C33.3867 38.5144 33.3867 37.1966 33.3867 35.8789C33.2949 35.7986 33.1804 35.7699 33.043 35.793C33.043 24.7644 33.043 13.7356 33.043 2.70703Z" fill="#4E60FF"/>
<path opacity="0.998" fill-rule="evenodd" clip-rule="evenodd" d="M34.6758 2.70703C34.7903 2.70703 34.905 2.70703 35.0195 2.70703C35.0195 13.7356 35.0195 24.7644 35.0195 35.793C35.1305 35.7726 35.2164 35.8012 35.2773 35.8789C35.1341 35.8789 34.9909 35.8789 34.8477 35.8789C34.8477 37.1966 34.8477 38.5144 34.8477 39.832C35.9412 39.5935 36.3279 39.9945 36.0078 41.0352C35.9434 41.089 35.8717 41.1319 35.793 41.1641C35.4216 41.2069 35.0493 41.2213 34.6758 41.207C34.6758 28.3737 34.6758 15.5403 34.6758 2.70703Z" fill="#515CFF"/>
<path opacity="0.938" fill-rule="evenodd" clip-rule="evenodd" d="M35.0195 2.70698C35.3468 2.67804 35.6618 2.721 35.9648 2.83589C36.0694 2.97748 36.141 3.13503 36.1797 3.30854C36.237 13.9648 36.237 24.621 36.1797 35.2773C36.047 35.7191 35.7462 35.9196 35.2773 35.8789C35.2164 35.8012 35.1305 35.7725 35.0195 35.7929C35.0195 24.7643 35.0195 13.7356 35.0195 2.70698Z" fill="#535AFF"/>
<path opacity="0.999" fill-rule="evenodd" clip-rule="evenodd" d="M10.5273 3.13672C10.6133 14.065 10.6419 25.0077 10.6133 35.9648C10.4024 36.0273 10.2019 36.1133 10.0117 36.2227C9.92577 25.323 9.89715 14.409 9.92577 3.48047C10.0836 3.30103 10.284 3.18645 10.5273 3.13672Z" fill="#07B6FF"/>
<path opacity="0.995" fill-rule="evenodd" clip-rule="evenodd" d="M9.92578 3.48047C9.89716 14.409 9.92578 25.323 10.0117 36.2227C9.28262 36.8492 9.06778 37.6227 9.36719 38.543C9.50838 38.8404 9.69461 39.0982 9.92578 39.3164C9.95354 39.8769 9.92492 40.4211 9.83984 40.9492C9.45519 40.8498 9.14014 40.6493 8.89453 40.3477C8.98047 28.3308 9.00909 16.2996 8.98047 4.25391C9.22023 3.89913 9.53537 3.64132 9.92578 3.48047Z" fill="#05B9FF"/>
<path opacity="0.943" fill-rule="evenodd" clip-rule="evenodd" d="M8.98047 4.25391C9.00909 16.2996 8.98047 28.3308 8.89453 40.3477C8.19032 39.7414 7.8036 38.9679 7.73438 38.0273C7.67708 27.7722 7.67708 17.5169 7.73438 7.26172C7.7754 6.09268 8.19076 5.09008 8.98047 4.25391Z" fill="#01BDFF"/>
<path fill-rule="evenodd" clip-rule="evenodd" d="M15.8555 8.89453C15.8555 10.2695 15.8555 11.6445 15.8555 13.0195C15.3685 13.0195 14.8815 13.0195 14.3945 13.0195C14.3945 11.6445 14.3945 10.2695 14.3945 8.89453C14.8815 8.89453 15.3685 8.89453 15.8555 8.89453Z" fill="#16A5FF"/>
<path fill-rule="evenodd" clip-rule="evenodd" d="M15.8555 8.89453C16.3997 8.89453 16.944 8.89453 17.4883 8.89453C17.4883 10.2695 17.4883 11.6445 17.4883 13.0195C16.944 13.0195 16.3997 13.0195 15.8555 13.0195C15.8555 11.6445 15.8555 10.2695 15.8555 8.89453Z" fill="#1A9FFF"/>
<path fill-rule="evenodd" clip-rule="evenodd" d="M17.4883 8.89453C17.7461 8.89453 18.0039 8.89453 18.2617 8.89453C18.2617 10.2695 18.2617 11.6445 18.2617 13.0195C18.0039 13.0195 17.7461 13.0195 17.4883 13.0195C17.4883 11.6445 17.4883 10.2695 17.4883 8.89453Z" fill="#1E9BFF"/>
<path fill-rule="evenodd" clip-rule="evenodd" d="M18.2617 8.89453C18.6341 8.89453 19.0065 8.89453 19.3789 8.89453C19.3789 10.2695 19.3789 11.6445 19.3789 13.0195C19.0065 13.0195 18.6341 13.0195 18.2617 13.0195C18.2617 11.6445 18.2617 10.2695 18.2617 8.89453Z" fill="#2197FF"/>
<path fill-rule="evenodd" clip-rule="evenodd" d="M19.3789 8.89453C19.694 8.89453 20.0091 8.89453 20.3242 8.89453C20.3242 10.2695 20.3242 11.6445 20.3242 13.0195C20.0091 13.0195 19.694 13.0195 19.3789 13.0195C19.3789 11.6445 19.3789 10.2695 19.3789 8.89453Z" fill="#2493FF"/>
<path fill-rule="evenodd" clip-rule="evenodd" d="M20.3242 8.89453C20.5534 8.89453 20.7825 8.89453 21.0117 8.89453C21.0117 10.2695 21.0117 11.6445 21.0117 13.0195C20.7825 13.0195 20.5534 13.0195 20.3242 13.0195C20.3242 11.6445 20.3242 10.2695 20.3242 8.89453Z" fill="#2690FF"/>
<path fill-rule="evenodd" clip-rule="evenodd" d="M21.0117 8.89453C21.556 8.89453 22.1003 8.89453 22.6445 8.89453C22.6445 10.2695 22.6445 11.6445 22.6445 13.0195C22.1003 13.0195 21.556 13.0195 21.0117 13.0195C21.0117 11.6445 21.0117 10.2695 21.0117 8.89453Z" fill="#2A8CFF"/>
<path fill-rule="evenodd" clip-rule="evenodd" d="M22.6445 8.89453C23.1888 8.89453 23.7331 8.89453 24.2773 8.89453C24.2773 10.2695 24.2773 11.6445 24.2773 13.0195C23.7331 13.0195 23.1888 13.0195 22.6445 13.0195C22.6445 11.6445 22.6445 10.2695 22.6445 8.89453Z" fill="#2F86FF"/>
<path fill-rule="evenodd" clip-rule="evenodd" d="M24.2773 8.89453C24.9075 8.89453 25.5378 8.89453 26.168 8.89453C26.168 10.2695 26.168 11.6445 26.168 13.0195C25.5378 13.0195 24.9075 13.0195 24.2773 13.0195C24.2773 11.6445 24.2773 10.2695 24.2773 8.89453Z" fill="#3480FF"/>
<path fill-rule="evenodd" clip-rule="evenodd" d="M26.168 8.89453C26.7122 8.89453 27.2565 8.89453 27.8008 8.89453C27.8008 10.2695 27.8008 11.6445 27.8008 13.0195C27.2565 13.0195 26.7122 13.0195 26.168 13.0195C26.168 11.6445 26.168 10.2695 26.168 8.89453Z" fill="#3979FF"/>
<path fill-rule="evenodd" clip-rule="evenodd" d="M27.8008 8.89453C28.0872 8.89453 28.3737 8.89453 28.6602 8.89453C28.6602 10.2695 28.6602 11.6445 28.6602 13.0195C28.3737 13.0195 28.0872 13.0195 27.8008 13.0195C27.8008 11.6445 27.8008 10.2695 27.8008 8.89453Z" fill="#3D75FF"/>
<path fill-rule="evenodd" clip-rule="evenodd" d="M28.6602 8.89453C28.9466 8.89453 29.2331 8.89453 29.5195 8.89453C29.5195 10.2695 29.5195 11.6445 29.5195 13.0195C29.2331 13.0195 28.9466 13.0195 28.6602 13.0195C28.6602 11.6445 28.6602 10.2695 28.6602 8.89453Z" fill="#3F71FF"/>
<path opacity="0.997" fill-rule="evenodd" clip-rule="evenodd" d="M30.6367 14.2227C30.6367 21.4128 30.6367 28.6028 30.6367 35.793C30.4993 35.7699 30.3848 35.7986 30.293 35.8789C30.0065 35.8789 29.72 35.8789 29.4336 35.8789C29.4336 28.7175 29.4336 21.556 29.4336 14.3945C29.8484 14.4185 30.2494 14.3613 30.6367 14.2227Z" fill="#426EFF"/>
<path opacity="0.989" fill-rule="evenodd" clip-rule="evenodd" d="M13.9648 14.3945C14.0508 14.3945 14.1367 14.3945 14.2227 14.3945C14.2227 21.5273 14.2227 28.6602 14.2227 35.793C14.3336 35.7726 14.4195 35.8012 14.4805 35.8789C14.194 35.8789 13.9075 35.8789 13.6211 35.8789C13.7129 35.7986 13.8274 35.7699 13.9648 35.793C13.9648 28.6602 13.9648 21.5273 13.9648 14.3945Z" fill="#13A9FF"/>
<path opacity="0.998" fill-rule="evenodd" clip-rule="evenodd" d="M14.2227 14.3945C14.7669 14.3945 15.3112 14.3945 15.8555 14.3945C15.8555 21.556 15.8555 28.7175 15.8555 35.8789C15.3972 35.8789 14.9388 35.8789 14.4805 35.8789C14.4195 35.8012 14.3336 35.7726 14.2227 35.793C14.2227 28.6602 14.2227 21.5273 14.2227 14.3945Z" fill="#15A5FF"/>
<path opacity="0.997" fill-rule="evenodd" clip-rule="evenodd" d="M15.8555 14.3945C16.3997 14.3945 16.944 14.3945 17.4883 14.3945C17.4883 21.5273 17.4883 28.6602 17.4883 35.793C17.3509 35.7699 17.2363 35.7986 17.1445 35.8789C16.7148 35.8789 16.2852 35.8789 15.8555 35.8789C15.8555 28.7175 15.8555 21.556 15.8555 14.3945Z" fill="#1A9FFF"/>
<path opacity="0.994" fill-rule="evenodd" clip-rule="evenodd" d="M17.4883 14.3945C17.7461 14.3945 18.0039 14.3945 18.2617 14.3945C18.2617 21.5273 18.2617 28.6602 18.2617 35.793C18.3991 35.7699 18.5137 35.7986 18.6055 35.8789C18.1185 35.8789 17.6315 35.8789 17.1445 35.8789C17.2363 35.7986 17.3509 35.7699 17.4883 35.793C17.4883 28.6602 17.4883 21.5273 17.4883 14.3945Z" fill="#1E9AFF"/>
<path opacity="0.996" fill-rule="evenodd" clip-rule="evenodd" d="M18.2617 14.3945C18.6341 14.3945 19.0065 14.3945 19.3789 14.3945C19.3789 21.5273 19.3789 28.6602 19.3789 35.793C19.571 35.7676 19.7429 35.7963 19.8945 35.8789C19.4648 35.8789 19.0352 35.8789 18.6055 35.8789C18.5137 35.7986 18.3991 35.7699 18.2617 35.793C18.2617 28.6602 18.2617 21.5273 18.2617 14.3945Z" fill="#2197FF"/>
<path opacity="0.999" fill-rule="evenodd" clip-rule="evenodd" d="M19.3789 14.3945C19.694 14.3945 20.0091 14.3945 20.3242 14.3945C20.3242 21.556 20.3242 28.7175 20.3242 35.8789C20.181 35.8789 20.0378 35.8789 19.8945 35.8789C19.7429 35.7963 19.571 35.7676 19.3789 35.793C19.3789 28.6602 19.3789 21.5273 19.3789 14.3945Z" fill="#2493FF"/>
<path opacity="0.996" fill-rule="evenodd" clip-rule="evenodd" d="M20.3242 14.3945C20.5534 14.3945 20.7825 14.3945 21.0117 14.3945C21.0117 21.5273 21.0117 28.6602 21.0117 35.793C21.1227 35.7726 21.2086 35.8012 21.2695 35.8789C20.9544 35.8789 20.6394 35.8789 20.3242 35.8789C20.3242 28.7175 20.3242 21.556 20.3242 14.3945Z" fill="#2690FF"/>
<path opacity="0.998" fill-rule="evenodd" clip-rule="evenodd" d="M21.0117 14.3945C21.4414 14.3945 21.8711 14.3945 22.3008 14.3945C22.3008 21.5273 22.3008 28.6602 22.3008 35.793C22.1634 35.7699 22.0488 35.7986 21.957 35.8789C21.7278 35.8789 21.4987 35.8789 21.2695 35.8789C21.2086 35.8012 21.1227 35.7726 21.0117 35.793C21.0117 28.6602 21.0117 21.5273 21.0117 14.3945Z" fill="#298DFF"/>
<path opacity="0.994" fill-rule="evenodd" clip-rule="evenodd" d="M22.3008 14.3945C22.4153 14.3945 22.53 14.3945 22.6445 14.3945C22.6445 21.556 22.6445 28.7175 22.6445 35.8789C22.4153 35.8789 22.1862 35.8789 21.957 35.8789C22.0488 35.7986 22.1634 35.7699 22.3008 35.793C22.3008 28.6602 22.3008 21.5273 22.3008 14.3945Z" fill="#2C8AFF"/>
<path opacity="0.998" fill-rule="evenodd" clip-rule="evenodd" d="M22.6445 14.3945C23.1888 14.3945 23.7331 14.3945 24.2773 14.3945C24.2773 21.5273 24.2773 28.6602 24.2773 35.793C24.1664 35.7726 24.0805 35.8012 24.0195 35.8789C23.5612 35.8789 23.1028 35.8789 22.6445 35.8789C22.6445 28.7175 22.6445 21.556 22.6445 14.3945Z" fill="#2F86FF"/>
<path opacity="0.995" fill-rule="evenodd" clip-rule="evenodd" d="M24.2773 14.3945C24.9075 14.3945 25.5378 14.3945 26.168 14.3945C26.168 21.5273 26.168 28.6602 26.168 35.793C26.3112 35.793 26.4544 35.793 26.5977 35.793C26.6829 35.7782 26.7401 35.8069 26.7695 35.8789C25.8528 35.8789 24.9362 35.8789 24.0195 35.8789C24.0805 35.8012 24.1664 35.7726 24.2773 35.793C24.2773 28.6602 24.2773 21.5273 24.2773 14.3945Z" fill="#3480FF"/>
<path fill-rule="evenodd" clip-rule="evenodd" d="M26.168 14.3945C26.3112 14.3945 26.4544 14.3945 26.5977 14.3945C26.5977 21.5273 26.5977 28.6602 26.5977 35.793C26.4544 35.793 26.3112 35.793 26.168 35.793C26.168 28.6602 26.168 21.5273 26.168 14.3945Z" fill="#377BFF"/>
<path opacity="0.997" fill-rule="evenodd" clip-rule="evenodd" d="M26.5977 14.3945C26.9987 14.3945 27.3997 14.3945 27.8008 14.3945C27.8008 21.5273 27.8008 28.6602 27.8008 35.793C27.9117 35.7726 27.9977 35.8012 28.0586 35.8789C27.6289 35.8789 27.1992 35.8789 26.7695 35.8789C26.7401 35.8069 26.6829 35.7782 26.5977 35.793C26.5977 28.6602 26.5977 21.5273 26.5977 14.3945Z" fill="#3A78FF"/>
<path opacity="0.998" fill-rule="evenodd" clip-rule="evenodd" d="M27.8008 14.3945C28.0872 14.3945 28.3737 14.3945 28.6602 14.3945C28.6602 21.556 28.6602 28.7175 28.6602 35.8789C28.4597 35.8789 28.2591 35.8789 28.0586 35.8789C27.9977 35.8012 27.9117 35.7726 27.8008 35.793C27.8008 28.6602 27.8008 21.5273 27.8008 14.3945Z" fill="#3D74FF"/>
<path opacity="0.997" fill-rule="evenodd" clip-rule="evenodd" d="M28.6602 14.3945C28.918 14.3945 29.1758 14.3945 29.4336 14.3945C29.4336 21.556 29.4336 28.7175 29.4336 35.8789C29.1758 35.8789 28.918 35.8789 28.6602 35.8789C28.6602 28.7175 28.6602 21.556 28.6602 14.3945Z" fill="#3F72FF"/>
<path opacity="0.988" fill-rule="evenodd" clip-rule="evenodd" d="M9.92578 39.3164C10.5172 39.7164 11.1761 39.8883 11.9023 39.832C11.9023 40.2903 11.9023 40.7487 11.9023 41.207C11.3859 41.2213 10.8703 41.2069 10.3555 41.1641C10.1644 41.1154 9.99255 41.0438 9.83984 40.9492C9.92492 40.4211 9.95354 39.8769 9.92578 39.3164Z" fill="#0AB4FF"/>
<path fill-rule="evenodd" clip-rule="evenodd" d="M11.9023 39.832C12.6758 39.832 13.4492 39.832 14.2227 39.832C14.2227 40.2903 14.2227 40.7487 14.2227 41.207C13.4492 41.207 12.6758 41.207 11.9023 41.207C11.9023 40.7487 11.9023 40.2903 11.9023 39.832Z" fill="#10ACFF"/>
<path fill-rule="evenodd" clip-rule="evenodd" d="M14.2227 39.832C14.7669 39.832 15.3112 39.832 15.8555 39.832C15.8555 40.2903 15.8555 40.7487 15.8555 41.207C15.3112 41.207 14.7669 41.207 14.2227 41.207C14.2227 40.7487 14.2227 40.2903 14.2227 39.832Z" fill="#15A5FF"/>
<path fill-rule="evenodd" clip-rule="evenodd" d="M15.8555 39.832C16.3997 39.832 16.944 39.832 17.4883 39.832C17.4883 40.2903 17.4883 40.7487 17.4883 41.207C16.944 41.207 16.3997 41.207 15.8555 41.207C15.8555 40.7487 15.8555 40.2903 15.8555 39.832Z" fill="#1A9FFF"/>
<path fill-rule="evenodd" clip-rule="evenodd" d="M17.4883 39.832C18.1185 39.832 18.7487 39.832 19.3789 39.832C19.3789 40.2903 19.3789 40.7487 19.3789 41.207C18.7487 41.207 18.1185 41.207 17.4883 41.207C17.4883 40.7487 17.4883 40.2903 17.4883 39.832Z" fill="#2098FF"/>
<path fill-rule="evenodd" clip-rule="evenodd" d="M19.3789 39.832C19.9231 39.832 20.4675 39.832 21.0117 39.832C21.0117 40.2903 21.0117 40.7487 21.0117 41.207C20.4675 41.207 19.9231 41.207 19.3789 41.207C19.3789 40.7487 19.3789 40.2903 19.3789 39.832Z" fill="#2492FF"/>
<path fill-rule="evenodd" clip-rule="evenodd" d="M21.0117 39.832C21.556 39.832 22.1003 39.832 22.6445 39.832C22.6445 40.2903 22.6445 40.7487 22.6445 41.207C22.1003 41.207 21.556 41.207 21.0117 41.207C21.0117 40.7487 21.0117 40.2903 21.0117 39.832Z" fill="#2A8CFF"/>
<path fill-rule="evenodd" clip-rule="evenodd" d="M22.6445 39.832C23.1888 39.832 23.7331 39.832 24.2773 39.832C24.2773 40.2903 24.2773 40.7487 24.2773 41.207C23.7331 41.207 23.1888 41.207 22.6445 41.207C22.6445 40.7487 22.6445 40.2903 22.6445 39.832Z" fill="#2F86FF"/>
<path fill-rule="evenodd" clip-rule="evenodd" d="M24.2773 39.832C24.9075 39.832 25.5378 39.832 26.168 39.832C26.168 40.2903 26.168 40.7487 26.168 41.207C25.5378 41.207 24.9075 41.207 24.2773 41.207C24.2773 40.7487 24.2773 40.2903 24.2773 39.832Z" fill="#3480FF"/>
<path fill-rule="evenodd" clip-rule="evenodd" d="M26.168 39.832C26.7122 39.832 27.2565 39.832 27.8008 39.832C27.8008 40.2903 27.8008 40.7487 27.8008 41.207C27.2565 41.207 26.7122 41.207 26.168 41.207C26.168 40.7487 26.168 40.2903 26.168 39.832Z" fill="#3979FF"/>
<path fill-rule="evenodd" clip-rule="evenodd" d="M27.8008 39.832C28.345 39.832 28.8894 39.832 29.4336 39.832C29.4336 40.2903 29.4336 40.7487 29.4336 41.207C28.8894 41.207 28.345 41.207 27.8008 41.207C27.8008 40.7487 27.8008 40.2903 27.8008 39.832Z" fill="#3E73FF"/>
<path fill-rule="evenodd" clip-rule="evenodd" d="M29.4336 39.832C29.9778 39.832 30.5222 39.832 31.0664 39.832C31.0664 40.2903 31.0664 40.7487 31.0664 41.207C30.5222 41.207 29.9778 41.207 29.4336 41.207C29.4336 40.7487 29.4336 40.2903 29.4336 39.832Z" fill="#436DFF"/>
<path fill-rule="evenodd" clip-rule="evenodd" d="M31.0664 39.832C31.7253 39.832 32.3841 39.832 33.043 39.832C33.043 40.2903 33.043 40.7487 33.043 41.207C32.3841 41.207 31.7253 41.207 31.0664 41.207C31.0664 40.7487 31.0664 40.2903 31.0664 39.832Z" fill="#4867FF"/>
<g opacity="0.5">
<path opacity="0.997" fill-rule="evenodd" clip-rule="evenodd" d="M50.9092 24.707C50.9092 35.7644 50.9092 46.8216 50.9092 57.8789C51.3172 57.8549 51.7176 57.8836 52.1104 57.9648C52.0837 47.0077 52.1104 36.065 52.1904 25.1367C51.8008 24.8925 51.3737 24.7492 50.9092 24.707Z" fill="#0AB3FF"/>
<path opacity="0.995" fill-rule="evenodd" clip-rule="evenodd" d="M50.9092 24.707C50.7224 24.707 50.5355 24.707 50.3486 24.707C50.3486 35.7356 50.3486 46.7644 50.3486 57.793C50.1437 57.767 49.9568 57.7957 49.7881 57.8789C50.1618 57.8789 50.5355 57.8789 50.9092 57.8789C50.9092 46.8216 50.9092 35.7644 50.9092 24.707Z" fill="#0DAFFF"/>
<path opacity="0.997" fill-rule="evenodd" clip-rule="evenodd" d="M50.3486 24.707C49.8148 24.707 49.281 24.707 48.7471 24.707C48.7471 26.3112 48.7471 27.9154 48.7471 29.5195C49.0602 29.4991 49.3538 29.5708 49.6279 29.7344C49.7254 29.876 49.7921 30.0335 49.8281 30.207C49.8815 32.0403 49.8815 33.8737 49.8281 35.707C49.724 36.1723 49.4437 36.4014 48.9873 36.3945C48.9873 43.5273 48.9873 50.6602 48.9873 57.793C49.1153 57.7699 49.2221 57.7986 49.3076 57.8789C49.4678 57.8789 49.6279 57.8789 49.7881 57.8789C49.9568 57.7957 50.1437 57.767 50.3486 57.793C50.3486 46.7644 50.3486 35.7356 50.3486 24.707Z" fill="#10ABFF"/>
<path fill-rule="evenodd" clip-rule="evenodd" d="M48.7471 24.707C48.2399 24.707 47.7327 24.707 47.2256 24.707C47.2256 26.3112 47.2256 27.9154 47.2256 29.5195C47.7327 29.5195 48.2399 29.5195 48.7471 29.5195C48.7471 27.9154 48.7471 26.3112 48.7471 24.707Z" fill="#15A5FF"/>
<path fill-rule="evenodd" clip-rule="evenodd" d="M47.2256 24.707C46.7185 24.707 46.2112 24.707 45.7041 24.707C45.7041 26.3112 45.7041 27.9154 45.7041 29.5195C46.2112 29.5195 46.7185 29.5195 47.2256 29.5195C47.2256 27.9154 47.2256 26.3112 47.2256 24.707Z" fill="#1A9FFF"/>
<path fill-rule="evenodd" clip-rule="evenodd" d="M45.7041 24.707C45.4639 24.707 45.2236 24.707 44.9834 24.707C44.9834 26.3112 44.9834 27.9154 44.9834 29.5195C45.2236 29.5195 45.4639 29.5195 45.7041 29.5195C45.7041 27.9154 45.7041 26.3112 45.7041 24.707Z" fill="#1E9BFF"/>
<path fill-rule="evenodd" clip-rule="evenodd" d="M44.9834 24.707C44.6364 24.707 44.2894 24.707 43.9424 24.707C43.9424 26.3112 43.9424 27.9154 43.9424 29.5195C44.2894 29.5195 44.6364 29.5195 44.9834 29.5195C44.9834 27.9154 44.9834 26.3112 44.9834 24.707Z" fill="#2197FF"/>
<path fill-rule="evenodd" clip-rule="evenodd" d="M43.9424 24.707C43.6487 24.707 43.3552 24.707 43.0615 24.707C43.0615 26.3112 43.0615 27.9154 43.0615 29.5195C43.3552 29.5195 43.6487 29.5195 43.9424 29.5195C43.9424 27.9154 43.9424 26.3112 43.9424 24.707Z" fill="#2493FF"/>
<path fill-rule="evenodd" clip-rule="evenodd" d="M43.0615 24.707C42.848 24.707 42.6345 24.707 42.4209 24.707C42.4209 26.3112 42.4209 27.9154 42.4209 29.5195C42.6345 29.5195 42.848 29.5195 43.0615 29.5195C43.0615 27.9154 43.0615 26.3112 43.0615 24.707Z" fill="#2690FF"/>
<path fill-rule="evenodd" clip-rule="evenodd" d="M42.4209 24.707C41.9138 24.707 41.4065 24.707 40.8994 24.707C40.8994 26.3112 40.8994 27.9154 40.8994 29.5195C41.4065 29.5195 41.9138 29.5195 42.4209 29.5195C42.4209 27.9154 42.4209 26.3112 42.4209 24.707Z" fill="#2A8CFF"/>
<path fill-rule="evenodd" clip-rule="evenodd" d="M40.8994 24.707C40.3923 24.707 39.8851 24.707 39.3779 24.707C39.3779 26.3112 39.3779 27.9154 39.3779 29.5195C39.8851 29.5195 40.3923 29.5195 40.8994 29.5195C40.8994 27.9154 40.8994 26.3112 40.8994 24.707Z" fill="#2F86FF"/>
<path fill-rule="evenodd" clip-rule="evenodd" d="M39.3779 24.707C38.7907 24.707 38.2034 24.707 37.6162 24.707C37.6162 26.3112 37.6162 27.9154 37.6162 29.5195C38.2034 29.5195 38.7907 29.5195 39.3779 29.5195C39.3779 27.9154 39.3779 26.3112 39.3779 24.707Z" fill="#3480FF"/>
<path fill-rule="evenodd" clip-rule="evenodd" d="M37.6162 24.707C37.1091 24.707 36.6019 24.707 36.0947 24.707C36.0947 26.3112 36.0947 27.9154 36.0947 29.5195C36.6019 29.5195 37.1091 29.5195 37.6162 29.5195C37.6162 27.9154 37.6162 26.3112 37.6162 24.707Z" fill="#3979FF"/>
<path fill-rule="evenodd" clip-rule="evenodd" d="M36.0947 24.707C35.8278 24.707 35.5608 24.707 35.2939 24.707C35.2939 26.3112 35.2939 27.9154 35.2939 29.5195C35.5608 29.5195 35.8278 29.5195 36.0947 29.5195C36.0947 27.9154 36.0947 26.3112 36.0947 24.707Z" fill="#3D75FF"/>
<path fill-rule="evenodd" clip-rule="evenodd" d="M35.2939 24.707C35.0537 24.707 34.8135 24.707 34.5732 24.707C34.5732 26.3112 34.5732 27.9154 34.5732 29.5195C34.8135 29.5195 35.0537 29.5195 35.2939 29.5195C35.2939 27.9154 35.2939 26.3112 35.2939 24.707Z" fill="#3F72FF"/>
<path opacity="0.998" fill-rule="evenodd" clip-rule="evenodd" d="M34.5732 24.707C34.1995 24.707 33.8259 24.707 33.4521 24.707C33.4521 26.3685 33.4521 28.03 33.4521 29.6914C33.8131 29.5528 34.1867 29.4955 34.5732 29.5195C34.5732 27.9154 34.5732 26.3112 34.5732 24.707Z" fill="#426EFF"/>
<path opacity="0.995" fill-rule="evenodd" clip-rule="evenodd" d="M33.4521 24.707C33.3187 24.707 33.1852 24.707 33.0518 24.707C33.0518 35.7356 33.0518 46.7644 33.0518 57.793C33.1551 57.7726 33.2352 57.8012 33.292 57.8789C33.4521 57.8789 33.6123 57.8789 33.7725 57.8789C33.6869 57.7986 33.5802 57.7699 33.4521 57.793C33.4521 50.6028 33.4521 43.4128 33.4521 36.2227C33.3645 36.0629 33.2978 35.891 33.252 35.707C33.1985 33.8737 33.1985 32.0403 33.252 30.207C33.2978 30.0231 33.3645 29.8512 33.4521 29.6914C33.4521 28.03 33.4521 26.3685 33.4521 24.707Z" fill="#456BFF"/>
<path opacity="0.998" fill-rule="evenodd" clip-rule="evenodd" d="M33.0518 24.707C32.5713 24.707 32.0908 24.707 31.6104 24.707C31.6104 35.7356 31.6104 46.7644 31.6104 57.793C31.8153 57.767 32.0022 57.7957 32.1709 57.8789C32.5446 57.8789 32.9183 57.8789 33.292 57.8789C33.2352 57.8012 33.1551 57.7726 33.0518 57.793C33.0518 46.7644 33.0518 35.7356 33.0518 24.707Z" fill="#4867FF"/>
<path opacity="0.993" fill-rule="evenodd" clip-rule="evenodd" d="M31.6104 24.707C31.4769 24.707 31.3435 24.707 31.21 24.707C31.21 35.7356 31.21 46.7644 31.21 57.793C31.0819 57.7699 30.9752 57.7986 30.8896 57.8789C31.3167 57.8789 31.7438 57.8789 32.1709 57.8789C32.0022 57.7957 31.8153 57.767 31.6104 57.793C31.6104 46.7644 31.6104 35.7356 31.6104 24.707Z" fill="#4B64FF"/>
<path opacity="0.999" fill-rule="evenodd" clip-rule="evenodd" d="M31.21 24.707C30.7028 24.707 30.1956 24.707 29.6885 24.707C29.6885 37.5403 29.6885 50.3737 29.6885 63.207C30.1956 63.207 30.7028 63.207 31.21 63.207C31.21 62.7487 31.21 62.2903 31.21 61.832C31.1032 61.832 30.9964 61.832 30.8896 61.832C30.8896 60.5144 30.8896 59.1966 30.8896 57.8789C30.9752 57.7986 31.0819 57.7699 31.21 57.793C31.21 46.7644 31.21 35.7356 31.21 24.707Z" fill="#4E60FF"/>
<path opacity="0.998" fill-rule="evenodd" clip-rule="evenodd" d="M29.6885 24.707C29.5817 24.707 29.4749 24.707 29.3682 24.707C29.3682 35.7356 29.3682 46.7644 29.3682 57.793C29.2648 57.7726 29.1847 57.8012 29.1279 57.8789C29.2614 57.8789 29.3948 57.8789 29.5283 57.8789C29.5283 59.1966 29.5283 60.5144 29.5283 61.832C28.5093 61.5935 28.149 61.9945 28.4473 63.0352C28.5073 63.089 28.5741 63.1319 28.6475 63.1641C28.9935 63.2069 29.3405 63.2213 29.6885 63.207C29.6885 50.3737 29.6885 37.5403 29.6885 24.707Z" fill="#515CFF"/>
<path opacity="0.938" fill-rule="evenodd" clip-rule="evenodd" d="M29.3682 24.707C29.0632 24.678 28.7697 24.721 28.4873 24.8359C28.3898 24.9775 28.3231 25.135 28.2871 25.3085C28.2337 35.9648 28.2337 46.621 28.2871 57.2773C28.4108 57.7191 28.691 57.9196 29.1279 57.8789C29.1847 57.8012 29.2648 57.7725 29.3682 57.7929C29.3682 46.7643 29.3682 35.7356 29.3682 24.707Z" fill="#535AFF"/>
<path opacity="0.999" fill-rule="evenodd" clip-rule="evenodd" d="M52.1902 25.1367C52.1101 36.065 52.0835 47.0077 52.1101 57.9648C52.3066 58.0273 52.4935 58.1133 52.6707 58.2227C52.7507 47.323 52.7774 36.409 52.7507 25.4805C52.6037 25.301 52.4169 25.1865 52.1902 25.1367Z" fill="#07B6FF"/>
<path opacity="0.995" fill-rule="evenodd" clip-rule="evenodd" d="M52.751 25.4805C52.7776 36.409 52.751 47.323 52.6709 58.2227C53.3503 58.8492 53.5505 59.6227 53.2715 60.543C53.1399 60.8404 52.9664 61.0982 52.751 61.3164C52.7251 61.8769 52.7518 62.4211 52.8311 62.9492C53.1895 62.8498 53.4831 62.6493 53.7119 62.3477C53.6318 50.3308 53.6052 38.2996 53.6318 26.2539C53.4084 25.8991 53.1148 25.6413 52.751 25.4805Z" fill="#05B9FF"/>
<path opacity="0.943" fill-rule="evenodd" clip-rule="evenodd" d="M53.6318 26.2539C53.6052 38.2996 53.6318 50.3308 53.7119 62.3477C54.3681 61.7414 54.7285 60.9679 54.793 60.0273C54.8464 49.7722 54.8464 39.5169 54.793 29.2617C54.7547 28.0927 54.3677 27.0901 53.6318 26.2539Z" fill="#01BDFF"/>
<path fill-rule="evenodd" clip-rule="evenodd" d="M47.2256 30.8945C47.2256 32.2695 47.2256 33.6445 47.2256 35.0195C47.6794 35.0195 48.1331 35.0195 48.5869 35.0195C48.5869 33.6445 48.5869 32.2695 48.5869 30.8945C48.1331 30.8945 47.6794 30.8945 47.2256 30.8945Z" fill="#16A5FF"/>
<path fill-rule="evenodd" clip-rule="evenodd" d="M47.2256 30.8945C46.7185 30.8945 46.2112 30.8945 45.7041 30.8945C45.7041 32.2695 45.7041 33.6445 45.7041 35.0195C46.2112 35.0195 46.7185 35.0195 47.2256 35.0195C47.2256 33.6445 47.2256 32.2695 47.2256 30.8945Z" fill="#1A9FFF"/>
<path fill-rule="evenodd" clip-rule="evenodd" d="M45.7041 30.8945C45.4639 30.8945 45.2236 30.8945 44.9834 30.8945C44.9834 32.2695 44.9834 33.6445 44.9834 35.0195C45.2236 35.0195 45.4639 35.0195 45.7041 35.0195C45.7041 33.6445 45.7041 32.2695 45.7041 30.8945Z" fill="#1E9BFF"/>
<path fill-rule="evenodd" clip-rule="evenodd" d="M44.9834 30.8945C44.6364 30.8945 44.2894 30.8945 43.9424 30.8945C43.9424 32.2695 43.9424 33.6445 43.9424 35.0195C44.2894 35.0195 44.6364 35.0195 44.9834 35.0195C44.9834 33.6445 44.9834 32.2695 44.9834 30.8945Z" fill="#2197FF"/>
<path fill-rule="evenodd" clip-rule="evenodd" d="M43.9424 30.8945C43.6487 30.8945 43.3552 30.8945 43.0615 30.8945C43.0615 32.2695 43.0615 33.6445 43.0615 35.0195C43.3552 35.0195 43.6487 35.0195 43.9424 35.0195C43.9424 33.6445 43.9424 32.2695 43.9424 30.8945Z" fill="#2493FF"/>
<path fill-rule="evenodd" clip-rule="evenodd" d="M43.0615 30.8945C42.848 30.8945 42.6345 30.8945 42.4209 30.8945C42.4209 32.2695 42.4209 33.6445 42.4209 35.0195C42.6345 35.0195 42.848 35.0195 43.0615 35.0195C43.0615 33.6445 43.0615 32.2695 43.0615 30.8945Z" fill="#2690FF"/>
<path fill-rule="evenodd" clip-rule="evenodd" d="M42.4209 30.8945C41.9138 30.8945 41.4065 30.8945 40.8994 30.8945C40.8994 32.2695 40.8994 33.6445 40.8994 35.0195C41.4065 35.0195 41.9138 35.0195 42.4209 35.0195C42.4209 33.6445 42.4209 32.2695 42.4209 30.8945Z" fill="#2A8CFF"/>
<path fill-rule="evenodd" clip-rule="evenodd" d="M40.8994 30.8945C40.3923 30.8945 39.8851 30.8945 39.3779 30.8945C39.3779 32.2695 39.3779 33.6445 39.3779 35.0195C39.8851 35.0195 40.3923 35.0195 40.8994 35.0195C40.8994 33.6445 40.8994 32.2695 40.8994 30.8945Z" fill="#2F86FF"/>
<path fill-rule="evenodd" clip-rule="evenodd" d="M39.3779 30.8945C38.7907 30.8945 38.2034 30.8945 37.6162 30.8945C37.6162 32.2695 37.6162 33.6445 37.6162 35.0195C38.2034 35.0195 38.7907 35.0195 39.3779 35.0195C39.3779 33.6445 39.3779 32.2695 39.3779 30.8945Z" fill="#3480FF"/>
<path fill-rule="evenodd" clip-rule="evenodd" d="M37.6162 30.8945C37.1091 30.8945 36.6019 30.8945 36.0947 30.8945C36.0947 32.2695 36.0947 33.6445 36.0947 35.0195C36.6019 35.0195 37.1091 35.0195 37.6162 35.0195C37.6162 33.6445 37.6162 32.2695 37.6162 30.8945Z" fill="#3979FF"/>
<path fill-rule="evenodd" clip-rule="evenodd" d="M36.0947 30.8945C35.8278 30.8945 35.5608 30.8945 35.2939 30.8945C35.2939 32.2695 35.2939 33.6445 35.2939 35.0195C35.5608 35.0195 35.8278 35.0195 36.0947 35.0195C36.0947 33.6445 36.0947 32.2695 36.0947 30.8945Z" fill="#3D75FF"/>
<path fill-rule="evenodd" clip-rule="evenodd" d="M35.2939 30.8945C35.027 30.8945 34.7601 30.8945 34.4932 30.8945C34.4932 32.2695 34.4932 33.6445 34.4932 35.0195C34.7601 35.0195 35.027 35.0195 35.2939 35.0195C35.2939 33.6445 35.2939 32.2695 35.2939 30.8945Z" fill="#3F71FF"/>
<path opacity="0.997" fill-rule="evenodd" clip-rule="evenodd" d="M33.4521 36.2227C33.4521 43.4128 33.4521 50.6028 33.4521 57.793C33.5802 57.7699 33.6869 57.7986 33.7725 57.8789C34.0394 57.8789 34.3063 57.8789 34.5732 57.8789C34.5732 50.7175 34.5732 43.556 34.5732 36.3945C34.1867 36.4185 33.8131 36.3613 33.4521 36.2227Z" fill="#426EFF"/>
<path opacity="0.989" fill-rule="evenodd" clip-rule="evenodd" d="M48.9873 36.3945C48.9072 36.3945 48.8271 36.3945 48.7471 36.3945C48.7471 43.5273 48.7471 50.6602 48.7471 57.793C48.6437 57.7726 48.5636 57.8012 48.5068 57.8789C48.7737 57.8789 49.0407 57.8789 49.3076 57.8789C49.2221 57.7986 49.1153 57.7699 48.9873 57.793C48.9873 50.6602 48.9873 43.5273 48.9873 36.3945Z" fill="#13A9FF"/>
<path opacity="0.998" fill-rule="evenodd" clip-rule="evenodd" d="M48.7471 36.3945C48.2399 36.3945 47.7327 36.3945 47.2256 36.3945C47.2256 43.556 47.2256 50.7175 47.2256 57.8789C47.6526 57.8789 48.0798 57.8789 48.5068 57.8789C48.5636 57.8012 48.6437 57.7726 48.7471 57.793C48.7471 50.6602 48.7471 43.5273 48.7471 36.3945Z" fill="#15A5FF"/>
<path opacity="0.997" fill-rule="evenodd" clip-rule="evenodd" d="M47.2256 36.3945C46.7185 36.3945 46.2112 36.3945 45.7041 36.3945C45.7041 43.5273 45.7041 50.6602 45.7041 57.793C45.8321 57.7699 45.9389 57.7986 46.0244 57.8789C46.4248 57.8789 46.8252 57.8789 47.2256 57.8789C47.2256 50.7175 47.2256 43.556 47.2256 36.3945Z" fill="#1A9FFF"/>
<path opacity="0.994" fill-rule="evenodd" clip-rule="evenodd" d="M45.7041 36.3945C45.4639 36.3945 45.2236 36.3945 44.9834 36.3945C44.9834 43.5273 44.9834 50.6602 44.9834 57.793C44.8554 57.7699 44.7486 57.7986 44.6631 57.8789C45.1169 57.8789 45.5706 57.8789 46.0244 57.8789C45.9389 57.7986 45.8321 57.7699 45.7041 57.793C45.7041 50.6602 45.7041 43.5273 45.7041 36.3945Z" fill="#1E9AFF"/>
<path opacity="0.996" fill-rule="evenodd" clip-rule="evenodd" d="M44.9834 36.3945C44.6364 36.3945 44.2894 36.3945 43.9424 36.3945C43.9424 43.5273 43.9424 50.6602 43.9424 57.793C43.7634 57.7676 43.6033 57.7963 43.4619 57.8789C43.8623 57.8789 44.2627 57.8789 44.6631 57.8789C44.7486 57.7986 44.8554 57.7699 44.9834 57.793C44.9834 50.6602 44.9834 43.5273 44.9834 36.3945Z" fill="#2197FF"/>
<path opacity="0.999" fill-rule="evenodd" clip-rule="evenodd" d="M43.9424 36.3945C43.6487 36.3945 43.3552 36.3945 43.0615 36.3945C43.0615 43.556 43.0615 50.7175 43.0615 57.8789C43.195 57.8789 43.3284 57.8789 43.4619 57.8789C43.6033 57.7963 43.7634 57.7676 43.9424 57.793C43.9424 50.6602 43.9424 43.5273 43.9424 36.3945Z" fill="#2493FF"/>
<path opacity="0.996" fill-rule="evenodd" clip-rule="evenodd" d="M43.0615 36.3945C42.848 36.3945 42.6345 36.3945 42.4209 36.3945C42.4209 43.5273 42.4209 50.6602 42.4209 57.793C42.3175 57.7726 42.2374 57.8012 42.1807 57.8789C42.4743 57.8789 42.7679 57.8789 43.0615 57.8789C43.0615 50.7175 43.0615 43.556 43.0615 36.3945Z" fill="#2690FF"/>
<path opacity="0.998" fill-rule="evenodd" clip-rule="evenodd" d="M42.4209 36.3945C42.0205 36.3945 41.6201 36.3945 41.2197 36.3945C41.2197 43.5273 41.2197 50.6602 41.2197 57.793C41.3478 57.7699 41.4545 57.7986 41.54 57.8789C41.7536 57.8789 41.9671 57.8789 42.1807 57.8789C42.2374 57.8012 42.3175 57.7726 42.4209 57.793C42.4209 50.6602 42.4209 43.5273 42.4209 36.3945Z" fill="#298DFF"/>
<path opacity="0.994" fill-rule="evenodd" clip-rule="evenodd" d="M41.2197 36.3945C41.113 36.3945 41.0062 36.3945 40.8994 36.3945C40.8994 43.556 40.8994 50.7175 40.8994 57.8789C41.113 57.8789 41.3265 57.8789 41.54 57.8789C41.4545 57.7986 41.3478 57.7699 41.2197 57.793C41.2197 50.6602 41.2197 43.5273 41.2197 36.3945Z" fill="#2C8AFF"/>
<path opacity="0.998" fill-rule="evenodd" clip-rule="evenodd" d="M40.8994 36.3945C40.3923 36.3945 39.8851 36.3945 39.3779 36.3945C39.3779 43.5273 39.3779 50.6602 39.3779 57.793C39.4813 57.7726 39.5614 57.8012 39.6182 57.8789C40.0452 57.8789 40.4724 57.8789 40.8994 57.8789C40.8994 50.7175 40.8994 43.556 40.8994 36.3945Z" fill="#2F86FF"/>
<path opacity="0.995" fill-rule="evenodd" clip-rule="evenodd" d="M39.3779 36.3945C38.7907 36.3945 38.2034 36.3945 37.6162 36.3945C37.6162 43.5273 37.6162 50.6602 37.6162 57.793C37.4827 57.793 37.3493 57.793 37.2158 57.793C37.1364 57.7782 37.0831 57.8069 37.0557 57.8789C37.9099 57.8789 38.764 57.8789 39.6182 57.8789C39.5614 57.8012 39.4813 57.7726 39.3779 57.793C39.3779 50.6602 39.3779 43.5273 39.3779 36.3945Z" fill="#3480FF"/>
<path fill-rule="evenodd" clip-rule="evenodd" d="M37.6162 36.3945C37.4827 36.3945 37.3493 36.3945 37.2158 36.3945C37.2158 43.5273 37.2158 50.6602 37.2158 57.793C37.3493 57.793 37.4827 57.793 37.6162 57.793C37.6162 50.6602 37.6162 43.5273 37.6162 36.3945Z" fill="#377BFF"/>
<path opacity="0.997" fill-rule="evenodd" clip-rule="evenodd" d="M37.2158 36.3945C36.8421 36.3945 36.4685 36.3945 36.0947 36.3945C36.0947 43.5273 36.0947 50.6602 36.0947 57.793C35.9913 57.7726 35.9113 57.8012 35.8545 57.8789C36.2549 57.8789 36.6553 57.8789 37.0557 57.8789C37.0831 57.8069 37.1364 57.7782 37.2158 57.793C37.2158 50.6602 37.2158 43.5273 37.2158 36.3945Z" fill="#3A78FF"/>
<path opacity="0.998" fill-rule="evenodd" clip-rule="evenodd" d="M36.0947 36.3945C35.8278 36.3945 35.5608 36.3945 35.2939 36.3945C35.2939 43.556 35.2939 50.7175 35.2939 57.8789C35.4808 57.8789 35.6677 57.8789 35.8545 57.8789C35.9113 57.8012 35.9913 57.7726 36.0947 57.793C36.0947 50.6602 36.0947 43.5273 36.0947 36.3945Z" fill="#3D74FF"/>
<path opacity="0.997" fill-rule="evenodd" clip-rule="evenodd" d="M35.2939 36.3945C35.0537 36.3945 34.8135 36.3945 34.5732 36.3945C34.5732 43.556 34.5732 50.7175 34.5732 57.8789C34.8135 57.8789 35.0537 57.8789 35.2939 57.8789C35.2939 50.7175 35.2939 43.556 35.2939 36.3945Z" fill="#3F72FF"/>
<path opacity="0.988" fill-rule="evenodd" clip-rule="evenodd" d="M52.751 61.3164C52.1999 61.7164 51.5859 61.8883 50.9092 61.832C50.9092 62.2903 50.9092 62.7487 50.9092 63.207C51.3904 63.2213 51.8708 63.2069 52.3506 63.1641C52.5286 63.1154 52.6888 63.0438 52.8311 62.9492C52.7518 62.4211 52.7251 61.8769 52.751 61.3164Z" fill="#0AB4FF"/>
<path fill-rule="evenodd" clip-rule="evenodd" d="M50.9092 61.832C50.1885 61.832 49.4678 61.832 48.7471 61.832C48.7471 62.2903 48.7471 62.7487 48.7471 63.207C49.4678 63.207 50.1885 63.207 50.9092 63.207C50.9092 62.7487 50.9092 62.2903 50.9092 61.832Z" fill="#10ACFF"/>
<path fill-rule="evenodd" clip-rule="evenodd" d="M48.7471 61.832C48.2399 61.832 47.7327 61.832 47.2256 61.832C47.2256 62.2903 47.2256 62.7487 47.2256 63.207C47.7327 63.207 48.2399 63.207 48.7471 63.207C48.7471 62.7487 48.7471 62.2903 48.7471 61.832Z" fill="#15A5FF"/>
<path fill-rule="evenodd" clip-rule="evenodd" d="M47.2256 61.832C46.7185 61.832 46.2112 61.832 45.7041 61.832C45.7041 62.2903 45.7041 62.7487 45.7041 63.207C46.2112 63.207 46.7185 63.207 47.2256 63.207C47.2256 62.7487 47.2256 62.2903 47.2256 61.832Z" fill="#1A9FFF"/>
<path fill-rule="evenodd" clip-rule="evenodd" d="M45.7041 61.832C45.1169 61.832 44.5296 61.832 43.9424 61.832C43.9424 62.2903 43.9424 62.7487 43.9424 63.207C44.5296 63.207 45.1169 63.207 45.7041 63.207C45.7041 62.7487 45.7041 62.2903 45.7041 61.832Z" fill="#2098FF"/>
<path fill-rule="evenodd" clip-rule="evenodd" d="M43.9424 61.832C43.4352 61.832 42.928 61.832 42.4209 61.832C42.4209 62.2903 42.4209 62.7487 42.4209 63.207C42.928 63.207 43.4352 63.207 43.9424 63.207C43.9424 62.7487 43.9424 62.2903 43.9424 61.832Z" fill="#2492FF"/>
<path fill-rule="evenodd" clip-rule="evenodd" d="M42.4209 61.832C41.9138 61.832 41.4065 61.832 40.8994 61.832C40.8994 62.2903 40.8994 62.7487 40.8994 63.207C41.4065 63.207 41.9138 63.207 42.4209 63.207C42.4209 62.7487 42.4209 62.2903 42.4209 61.832Z" fill="#2A8CFF"/>
<path fill-rule="evenodd" clip-rule="evenodd" d="M40.8994 61.832C40.3923 61.832 39.8851 61.832 39.3779 61.832C39.3779 62.2903 39.3779 62.7487 39.3779 63.207C39.8851 63.207 40.3923 63.207 40.8994 63.207C40.8994 62.7487 40.8994 62.2903 40.8994 61.832Z" fill="#2F86FF"/>
<path fill-rule="evenodd" clip-rule="evenodd" d="M39.3779 61.832C38.7907 61.832 38.2034 61.832 37.6162 61.832C37.6162 62.2903 37.6162 62.7487 37.6162 63.207C38.2034 63.207 38.7907 63.207 39.3779 63.207C39.3779 62.7487 39.3779 62.2903 39.3779 61.832Z" fill="#3480FF"/>
<path fill-rule="evenodd" clip-rule="evenodd" d="M37.6162 61.832C37.1091 61.832 36.6019 61.832 36.0947 61.832C36.0947 62.2903 36.0947 62.7487 36.0947 63.207C36.6019 63.207 37.1091 63.207 37.6162 63.207C37.6162 62.7487 37.6162 62.2903 37.6162 61.832Z" fill="#3979FF"/>
<path fill-rule="evenodd" clip-rule="evenodd" d="M36.0947 61.832C35.5876 61.832 35.0804 61.832 34.5732 61.832C34.5732 62.2903 34.5732 62.7487 34.5732 63.207C35.0804 63.207 35.5876 63.207 36.0947 63.207C36.0947 62.7487 36.0947 62.2903 36.0947 61.832Z" fill="#3E73FF"/>
<path fill-rule="evenodd" clip-rule="evenodd" d="M34.5732 61.832C34.0661 61.832 33.5589 61.832 33.0518 61.832C33.0518 62.2903 33.0518 62.7487 33.0518 63.207C33.5589 63.207 34.0661 63.207 34.5732 63.207C34.5732 62.7487 34.5732 62.2903 34.5732 61.832Z" fill="#436DFF"/>
<path fill-rule="evenodd" clip-rule="evenodd" d="M33.0518 61.832C32.4378 61.832 31.8239 61.832 31.21 61.832C31.21 62.2903 31.21 62.7487 31.21 63.207C31.8239 63.207 32.4378 63.207 33.0518 63.207C33.0518 62.7487 33.0518 62.2903 33.0518 61.832Z" fill="#4867FF"/>
</g>
</svg>
