<svg width="24" height="24" viewBox="0 0 24 24" fill="none" xmlns="http://www.w3.org/2000/svg">
<path opacity="0.994" fill-rule="evenodd" clip-rule="evenodd" d="M5.50781 1.47656C9.82036 1.46875 14.1329 1.47656 18.4453 1.5C19.375 1.74219 19.9609 2.32813 20.2031 3.25781C20.2344 9.07031 20.2344 14.8828 20.2031 20.6953C19.9609 21.625 19.375 22.2109 18.4453 22.4531C14.2422 22.4844 10.0391 22.4844 5.83594 22.4531C4.71877 22.1797 4.02344 21.4844 3.75 20.3672C3.71875 14.664 3.71875 8.96095 3.75 3.25781C4.00073 2.32743 4.58666 1.73368 5.50781 1.47656ZM5.97656 2.97656C9.97659 2.96875 13.9766 2.97656 17.9766 3C18.4063 3.05469 18.6484 3.29687 18.7031 3.72656C18.7344 7.97658 18.7344 12.2265 18.7031 16.4766C18.6484 16.9063 18.4063 17.1484 17.9766 17.2031C13.9453 17.2187 9.91406 17.2344 5.88281 17.25C5.65852 17.2831 5.44758 17.3534 5.25 17.4609C5.21874 12.8828 5.21874 8.3047 5.25 3.72656C5.31309 3.29636 5.5553 3.04636 5.97656 2.97656ZM18.6328 18.6328C18.6951 18.8809 18.7264 19.1465 18.7266 19.4297C18.7298 19.7759 18.7063 20.1196 18.6563 20.4609C18.5343 20.7681 18.3078 20.9322 17.9766 20.9531C14.1015 20.9844 10.2266 20.9844 6.35156 20.9531C5.53336 20.8223 5.1818 20.3457 5.29688 19.5234C5.48972 19.0493 5.84128 18.7915 6.35156 18.75C10.3828 18.7344 14.4141 18.7187 18.4453 18.7031C18.5183 18.6933 18.5808 18.6698 18.6328 18.6328Z" fill="#8A8A8A"/>
<path opacity="0.963" fill-rule="evenodd" clip-rule="evenodd" d="M8.88249 5.46094C10.945 5.45312 13.0075 5.46094 15.07 5.48438C15.548 5.74655 15.6808 6.12938 15.4684 6.63282C15.3313 6.84821 15.136 6.9654 14.8825 6.98438C12.945 7.01565 11.0075 7.01565 9.06999 6.98438C8.40071 6.78437 8.22099 6.37032 8.53093 5.74219C8.63002 5.61933 8.74721 5.52558 8.88249 5.46094Z" fill="#8A8A8A"/>
<path opacity="0.962" fill-rule="evenodd" clip-rule="evenodd" d="M8.97656 8.64844C10.8985 8.64062 12.8204 8.64844 14.7422 8.67188C15.21 8.84954 15.3897 9.18544 15.2812 9.67969C15.1755 9.92612 14.9958 10.0902 14.7422 10.1719C12.8047 10.2031 10.8672 10.2031 8.92969 10.1719C8.57241 10.0517 8.38491 9.80166 8.36719 9.42188C8.40984 9.02949 8.61295 8.77168 8.97656 8.64844Z" fill="#8A8A8A"/>
</svg>
