<svg width="40" height="40" viewBox="0 0 40 40" fill="none" xmlns="http://www.w3.org/2000/svg">
<circle cx="20" cy="20" r="20" fill="#480D9B"/>
<g clip-path="url(#clip0_1696_3323)">
<rect width="20" height="20" transform="translate(10 10)" fill="#480D9B"/>
<path opacity="0.988" fill-rule="evenodd" clip-rule="evenodd" d="M29.9805 16.4258C29.9805 18.3529 29.9805 20.28 29.9805 22.207C29.795 22.658 29.4564 22.8338 28.9648 22.7344C28.6849 22.6628 28.5091 22.487 28.4375 22.207C28.4245 20.4362 28.4114 18.6654 28.3984 16.8945C28.3008 15.9636 27.7864 15.4492 26.8555 15.3516C26.3216 15.3386 25.7878 15.3255 25.2539 15.3125C24.5534 15.1715 24.0131 14.8004 23.6328 14.1992C23.4482 13.7757 23.2789 13.346 23.125 12.9102C22.9704 12.6799 22.7555 12.5562 22.4805 12.5391C20.7344 12.5012 18.9896 12.5143 17.2461 12.5781C17.0858 12.6604 16.9491 12.7711 16.8359 12.9102C16.7111 13.2196 16.5939 13.5321 16.4844 13.8477C16.1466 14.6448 15.5542 15.1331 14.707 15.3125C14.0678 15.3176 13.4298 15.3436 12.793 15.3906C12.0274 15.5997 11.6172 16.1011 11.5625 16.8945C11.556 18.3919 11.5495 19.8893 11.543 21.3867C11.5374 22.9893 11.5569 24.5908 11.6016 26.1914C11.7643 26.8229 12.1615 27.22 12.793 27.3828C17.4796 27.4473 22.1671 27.4604 26.8555 27.4219C27.5655 27.3634 28.0537 27.0053 28.3203 26.3477C28.3629 26.0722 28.415 25.7988 28.4766 25.5273C28.7286 25.1177 29.0867 24.994 29.5508 25.1563C29.7625 25.262 29.9057 25.4248 29.9805 25.6445C29.9805 25.8789 29.9805 26.1133 29.9805 26.3477C29.7191 27.6315 28.9639 28.4843 27.7148 28.9063C27.5864 28.9407 27.4561 28.9667 27.3242 28.9844C22.4284 29.0104 17.5325 29.0104 12.6367 28.9844C11.485 28.7893 10.6712 28.1577 10.1953 27.0898C10.1044 26.8427 10.0328 26.5952 9.98047 26.3477C9.98047 23.0404 9.98047 19.7331 9.98047 16.4258C10.2656 15.0793 11.0728 14.2134 12.4023 13.8281C13.0258 13.7798 13.6508 13.7537 14.2773 13.75C14.5538 13.7322 14.7687 13.6085 14.9219 13.3789C15.0889 12.9299 15.2712 12.4872 15.4688 12.0508C15.8455 11.4747 16.3729 11.1167 17.0508 10.9766C19.0039 10.9505 20.957 10.9505 22.9102 10.9766C23.7102 11.1648 24.2896 11.6271 24.6484 12.3633C24.7603 12.6598 24.8645 12.9593 24.9609 13.2617C25.1051 13.5651 25.346 13.7279 25.6836 13.75C26.3101 13.7537 26.9351 13.7798 27.5586 13.8281C28.8881 14.2134 29.6954 15.0793 29.9805 16.4258Z" fill="white"/>
<path opacity="0.971" fill-rule="evenodd" clip-rule="evenodd" d="M19.4336 16.1134C21.5949 15.9667 23.229 16.8131 24.3359 18.6525C25.0911 20.215 25.0911 21.7775 24.3359 23.34C23.2299 25.1855 21.5958 26.0253 19.4336 25.8595C17.7778 25.6219 16.5343 24.782 15.7031 23.34C14.9479 21.7775 14.9479 20.215 15.7031 18.6525C16.5403 17.2099 17.7838 16.3635 19.4336 16.1134ZM19.5508 17.715C21.0359 17.6033 22.1622 18.1762 22.9297 19.4337C23.5993 20.9043 23.3844 22.2259 22.2851 23.3986C21.2586 24.2881 20.0998 24.5094 18.8086 24.0626C17.2128 23.3103 16.5422 22.0537 16.7969 20.2931C17.191 18.8696 18.109 18.0103 19.5508 17.715Z" fill="white"/>
</g>
<defs>
<clipPath id="clip0_1696_3323">
<rect width="20" height="20" fill="white" transform="translate(10 10)"/>
</clipPath>
</defs>
</svg>
