<svg width="24" height="24" viewBox="0 0 24 24" fill="none" xmlns="http://www.w3.org/2000/svg">
<path opacity="0.95" fill-rule="evenodd" clip-rule="evenodd" d="M18.3048 0.960936C19.758 0.953127 21.2111 0.960936 22.6641 0.984374C22.9502 1.12689 23.0517 1.35345 22.9688 1.66406C22.6407 2.97656 22.3126 4.28906 21.9844 5.60156C21.8183 5.97351 21.5448 6.07509 21.1641 5.90625C21.0181 5.79375 20.9556 5.6453 20.9766 5.46094C21.1571 4.64544 21.3369 3.83294 21.5157 3.02344C15.8391 7.8645 9.28441 10.8411 1.85163 11.9531C1.22642 12.1305 0.937357 11.904 0.984438 11.2734C1.03702 11.1739 1.10733 11.088 1.19538 11.0156C8.73517 9.96328 15.3602 6.96328 21.0704 2.01562C20.1485 2 19.2266 1.98437 18.3048 1.96875C18.0608 1.89506 17.9515 1.73099 17.9766 1.47656C17.9571 1.21811 18.0664 1.04623 18.3048 0.960936Z" fill="#FE6B01"/>
<path opacity="0.969" fill-rule="evenodd" clip-rule="evenodd" d="M16.3357 7.94532C18.1013 7.93749 19.867 7.94532 21.6325 7.96876C21.8122 8.02346 21.9294 8.14065 21.9841 8.32032C22.0075 12.8671 22.0154 17.414 22.0075 21.9609C22.2269 21.9532 22.4456 21.961 22.6638 21.9844C22.9499 22.1269 23.0514 22.3535 22.9685 22.6641C22.8982 22.7969 22.7966 22.8984 22.6638 22.9688C15.5388 23 8.41378 23 1.28878 22.9688C0.964701 22.792 0.878765 22.5342 1.03096 22.1953C1.10329 22.1073 1.18922 22.037 1.28878 21.9844C1.50697 21.961 1.72572 21.9532 1.94503 21.9609C1.93721 19.414 1.94503 16.8671 1.96846 14.3203C2.02315 14.1406 2.14034 14.0235 2.32003 13.9688C4.08565 13.9375 5.85126 13.9375 7.6169 13.9688C7.77801 14.0206 7.8952 14.1221 7.96846 14.2734C7.9919 16.8359 7.99973 19.3984 7.9919 21.9609C8.32003 21.9609 8.64815 21.9609 8.97628 21.9609C8.96845 18.3828 8.97628 14.8047 8.99971 11.2266C9.09163 11.1031 9.20882 11.0171 9.35128 10.9688C11.1013 10.9375 12.8513 10.9375 14.6013 10.9688C14.7437 11.0171 14.8609 11.1031 14.9528 11.2266C14.9763 14.8047 14.9841 18.3828 14.9763 21.9609C15.3044 21.9609 15.6325 21.9609 15.9607 21.9609C15.9528 17.3984 15.9607 12.8359 15.9841 8.27344C16.0657 8.12129 16.1829 8.01193 16.3357 7.94532ZM16.9919 8.97657C18.32 8.97657 19.6482 8.97657 20.9763 8.97657C20.9763 13.3047 20.9763 17.6328 20.9763 21.9609C19.6482 21.9609 18.32 21.9609 16.9919 21.9609C16.9919 17.6328 16.9919 13.3047 16.9919 8.97657ZM10.0075 11.9766C11.32 11.9766 12.6325 11.9766 13.945 11.9766C13.945 15.3047 13.945 18.6328 13.945 21.9609C12.6325 21.9609 11.32 21.9609 10.0075 21.9609C10.0075 18.6328 10.0075 15.3047 10.0075 11.9766ZM2.97628 14.9766C4.3044 14.9766 5.63254 14.9766 6.96065 14.9766C6.96065 17.3047 6.96065 19.6328 6.96065 21.9609C5.63254 21.9609 4.3044 21.9609 2.97628 21.9609C2.97628 19.6328 2.97628 17.3047 2.97628 14.9766Z" fill="#FE6B01"/>
</svg>
