<svg width="24" height="24" viewBox="0 0 24 24" fill="none" xmlns="http://www.w3.org/2000/svg">
<path opacity="0.985" fill-rule="evenodd" clip-rule="evenodd" d="M11.7891 2.83587C11.915 2.82818 12.04 2.83599 12.1641 2.85931C13.4766 3.51556 14.7891 4.17181 16.1016 4.82806C16.2138 4.91956 16.2841 5.03674 16.3125 5.17962C16.3359 5.67935 16.3438 6.17937 16.3359 6.67962C17.8204 6.67179 19.3048 6.67962 20.7891 6.70306C20.9531 6.7421 21.0547 6.84368 21.0938 7.00774C21.1172 11.3827 21.125 15.7577 21.1172 20.1327C21.3365 20.125 21.5552 20.1328 21.7734 20.1562C22.1423 20.421 22.1735 20.7179 21.8672 21.0468C21.8203 21.0624 21.7734 21.0781 21.7266 21.0937C15.2265 21.1249 8.72658 21.1249 2.22656 21.0937C2.0017 21.0197 1.87671 20.8634 1.85156 20.6249C1.86738 20.4056 1.97675 20.2493 2.17969 20.1562C2.39788 20.1328 2.61663 20.125 2.83594 20.1327C2.82812 15.7577 2.83594 11.3827 2.85938 7.00774C2.89844 6.84368 3 6.7421 3.16406 6.70306C4.64835 6.67962 6.13275 6.67179 7.61719 6.67962C7.60936 6.17937 7.61719 5.67935 7.64062 5.17962C7.66903 5.03674 7.73934 4.91956 7.85156 4.82806C9.17423 4.17457 10.4867 3.5105 11.7891 2.83587ZM11.9297 3.91399C13.0438 4.44761 14.1532 4.99446 15.2578 5.55462C15.3047 10.4139 15.3203 15.2733 15.3047 20.1327C14.6797 20.1327 14.0547 20.1327 13.4297 20.1327C13.4375 19.2576 13.4297 18.3826 13.4062 17.5077C13.3515 17.3906 13.2656 17.3046 13.1484 17.2499C12.3672 17.2187 11.586 17.2187 10.8047 17.2499C10.721 17.2867 10.6507 17.3414 10.5938 17.414C10.5246 18.3159 10.5012 19.2222 10.5234 20.1327C9.89845 20.1327 9.27342 20.1327 8.64844 20.1327C8.63283 15.2733 8.64844 10.4139 8.69531 5.55462C9.78361 5.01832 10.8617 4.47144 11.9297 3.91399ZM11.8359 6.72649C12.3553 6.75251 12.5193 7.00249 12.3281 7.47649C11.9174 7.73885 11.6439 7.63732 11.5078 7.17181C11.556 6.97559 11.6654 6.82714 11.8359 6.72649ZM3.82031 7.66399C5.08594 7.66399 6.35156 7.66399 7.61719 7.66399C7.61719 11.8203 7.61719 15.9765 7.61719 20.1327C6.35156 20.1327 5.08594 20.1327 3.82031 20.1327C3.82031 15.9765 3.82031 11.8203 3.82031 7.66399ZM16.3359 7.66399C17.6016 7.66399 18.8672 7.66399 20.1328 7.66399C20.1328 11.8203 20.1328 15.9765 20.1328 20.1327C18.8672 20.1327 17.6016 20.1327 16.3359 20.1327C16.3359 15.9765 16.3359 11.8203 16.3359 7.66399ZM11.5078 18.2109C11.8203 18.2109 12.1328 18.2109 12.4453 18.2109C12.4453 18.8515 12.4453 19.4921 12.4453 20.1327C12.1328 20.1327 11.8203 20.1327 11.5078 20.1327C11.5078 19.4921 11.5078 18.8515 11.5078 18.2109Z" fill="#8A8A8A"/>
<path opacity="0.981" fill-rule="evenodd" clip-rule="evenodd" d="M11.8362 5.69531C12.9728 5.77725 13.4962 6.38662 13.4065 7.52344C13.0923 8.40328 12.4751 8.75484 11.5549 8.57812C10.6815 8.2297 10.3612 7.59689 10.594 6.67969C10.8258 6.111 11.2399 5.78288 11.8362 5.69531ZM11.8362 6.72656C11.6657 6.8272 11.5563 6.97566 11.5081 7.17188C11.6442 7.63739 11.9176 7.73892 12.3284 7.47656C12.5196 7.00256 12.3555 6.75258 11.8362 6.72656Z" fill="#8A8A8A"/>
<path opacity="0.98" fill-rule="evenodd" clip-rule="evenodd" d="M5.0859 8.60155C5.52367 8.59377 5.9612 8.60155 6.3984 8.62499C6.69831 8.79031 6.78423 9.03247 6.65622 9.35155C6.5987 9.45589 6.51273 9.52621 6.3984 9.56249C5.94526 9.59375 5.49217 9.59375 5.03903 9.56249C4.73739 9.34278 4.68269 9.06931 4.87497 8.74217C4.9524 8.70003 5.02272 8.65316 5.0859 8.60155Z" fill="#8A8A8A"/>
<path opacity="0.976" fill-rule="evenodd" clip-rule="evenodd" d="M17.5549 8.60155C17.9926 8.59377 18.4302 8.60155 18.8674 8.62499C19.2128 8.82069 19.2831 9.09411 19.0783 9.4453C19.036 9.5016 18.9813 9.54069 18.9142 9.56249C18.4611 9.59375 18.008 9.59375 17.5549 9.56249C17.1197 9.24467 17.1197 8.92438 17.5549 8.60155Z" fill="#8A8A8A"/>
<path opacity="0.982" fill-rule="evenodd" clip-rule="evenodd" d="M5.0859 10.5234C5.52367 10.5156 5.9612 10.5234 6.3984 10.5469C6.69831 10.7122 6.78423 10.9543 6.65622 11.2734C6.5987 11.3778 6.51273 11.4481 6.3984 11.4844C5.94526 11.5156 5.49217 11.5156 5.03903 11.4844C4.73739 11.2647 4.68269 10.9912 4.87497 10.664C4.9524 10.6219 5.02272 10.575 5.0859 10.5234Z" fill="#8A8A8A"/>
<path opacity="0.98" fill-rule="evenodd" clip-rule="evenodd" d="M17.5543 10.5234C17.9921 10.5156 18.4296 10.5234 18.8668 10.5469C19.2123 10.7426 19.2826 11.016 19.0778 11.3672C19.019 11.4005 18.9643 11.4395 18.9137 11.4844C18.4606 11.5156 18.0075 11.5156 17.5543 11.4844C17.1199 11.1643 17.1199 10.844 17.5543 10.5234Z" fill="#8A8A8A"/>
<path opacity="0.946" fill-rule="evenodd" clip-rule="evenodd" d="M9.91446 11.4608C10.3713 11.4412 10.8245 11.4646 11.2738 11.5312C11.5863 11.828 11.5863 12.1249 11.2738 12.4218C10.7895 12.5155 10.3051 12.5155 9.82071 12.4218C9.53355 12.216 9.47889 11.9581 9.65664 11.6483C9.74158 11.5791 9.8275 11.5166 9.91446 11.4608Z" fill="#8A8A8A"/>
<path opacity="0.947" fill-rule="evenodd" clip-rule="evenodd" d="M12.8205 11.4609C13.2115 11.4531 13.6021 11.4609 13.9924 11.4844C14.2577 11.5389 14.3983 11.703 14.4143 11.9765C14.3983 12.2501 14.2577 12.4142 13.9924 12.4687C13.5513 12.5117 13.1139 12.4961 12.6799 12.4219C12.4652 12.2607 12.3948 12.0498 12.469 11.789C12.5518 11.6357 12.669 11.5263 12.8205 11.4609Z" fill="#8A8A8A"/>
<path opacity="0.983" fill-rule="evenodd" clip-rule="evenodd" d="M5.03915 12.4453C5.49253 12.4375 5.94567 12.4453 6.39853 12.4687C6.69782 12.632 6.78375 12.8743 6.65634 13.1953C6.58401 13.2833 6.49809 13.3536 6.39853 13.4062C5.96104 13.4375 5.52351 13.4375 5.08603 13.4062C4.74061 13.2105 4.67028 12.9371 4.87509 12.5859C4.92876 12.5327 4.98346 12.4858 5.03915 12.4453Z" fill="#8A8A8A"/>
<path opacity="0.981" fill-rule="evenodd" clip-rule="evenodd" d="M17.5548 12.4453C18.0082 12.4375 18.4613 12.4453 18.9142 12.4687C19.2158 12.6884 19.2705 12.9619 19.0782 13.289C19.0117 13.334 18.9414 13.3731 18.8673 13.4062C18.4298 13.4375 17.9923 13.4375 17.5548 13.4062C17.1211 13.0838 17.1211 12.7635 17.5548 12.4453Z" fill="#8A8A8A"/>
<path opacity="0.967" fill-rule="evenodd" clip-rule="evenodd" d="M9.91446 13.3827C10.3713 13.363 10.8245 13.3865 11.2738 13.453C11.5863 13.7499 11.5863 14.0468 11.2738 14.3437C10.7895 14.4374 10.3051 14.4374 9.82071 14.3437C9.53355 14.1378 9.47889 13.88 9.65664 13.5702C9.74158 13.501 9.8275 13.4385 9.91446 13.3827Z" fill="#8A8A8A"/>
<path opacity="0.965" fill-rule="evenodd" clip-rule="evenodd" d="M12.8205 13.3828C13.2271 13.375 13.6333 13.3828 14.0393 13.4062C14.398 13.592 14.484 13.8654 14.2971 14.2265C14.2127 14.3117 14.1112 14.3664 13.9924 14.3906C13.5513 14.4336 13.1139 14.418 12.6799 14.3437C12.4652 14.1826 12.3948 13.9716 12.469 13.7109C12.5518 13.5575 12.669 13.4482 12.8205 13.3828Z" fill="#8A8A8A"/>
<path opacity="0.976" fill-rule="evenodd" clip-rule="evenodd" d="M5.03915 14.3672C5.49253 14.3594 5.94567 14.3672 6.39853 14.3906C6.71536 14.5482 6.80128 14.7904 6.65634 15.1172C6.58401 15.2052 6.49809 15.2755 6.39853 15.3281C5.96104 15.3594 5.52351 15.3594 5.08603 15.3281C4.74061 15.1324 4.67028 14.859 4.87509 14.5078C4.92876 14.4545 4.98346 14.4077 5.03915 14.3672Z" fill="#8A8A8A"/>
<path opacity="0.978" fill-rule="evenodd" clip-rule="evenodd" d="M17.5545 14.3672C18.0078 14.3594 18.461 14.3672 18.9138 14.3906C19.2155 14.6103 19.2702 14.8838 19.0779 15.2109C19.0114 15.2559 18.9411 15.295 18.867 15.3281C18.4295 15.3594 17.9919 15.3594 17.5545 15.3281C17.1186 15.0038 17.1186 14.6835 17.5545 14.3672Z" fill="#8A8A8A"/>
<path opacity="0.986" fill-rule="evenodd" clip-rule="evenodd" d="M9.91446 15.3046C10.3713 15.2849 10.8245 15.3083 11.2738 15.3749C11.5863 15.6718 11.5863 15.9687 11.2738 16.2655C10.7888 16.358 10.3045 16.358 9.82071 16.2655C9.53355 16.0597 9.47889 15.8019 9.65664 15.4921C9.74158 15.4229 9.8275 15.3604 9.91446 15.3046Z" fill="#8A8A8A"/>
<path opacity="0.978" fill-rule="evenodd" clip-rule="evenodd" d="M12.8205 15.3047C13.2271 15.2969 13.6333 15.3047 14.0393 15.3281C14.398 15.5139 14.484 15.7873 14.2971 16.1484C14.2127 16.2336 14.1112 16.2883 13.9924 16.3125C13.552 16.354 13.1145 16.3384 12.6799 16.2656C12.4652 16.1045 12.3948 15.8935 12.469 15.6328C12.5518 15.4794 12.669 15.3701 12.8205 15.3047Z" fill="#8A8A8A"/>
<path opacity="0.977" fill-rule="evenodd" clip-rule="evenodd" d="M5.03915 16.289C5.50818 16.2813 5.97693 16.289 6.4454 16.3125C6.82762 16.6444 6.81201 16.9569 6.39853 17.25C5.96104 17.2813 5.52351 17.2813 5.08603 17.25C4.74061 17.0543 4.67028 16.7809 4.87509 16.4297C4.92876 16.3764 4.98346 16.3295 5.03915 16.289Z" fill="#8A8A8A"/>
<path opacity="0.983" fill-rule="evenodd" clip-rule="evenodd" d="M17.5081 16.289C17.9771 16.2813 18.4459 16.289 18.9143 16.3125C19.216 16.5322 19.2707 16.8057 19.0784 17.1328C19.0119 17.1778 18.9416 17.2168 18.8675 17.25C18.43 17.2813 17.9924 17.2813 17.555 17.25C17.2176 17.0471 17.1473 16.7736 17.344 16.4297C17.4152 16.3986 17.4699 16.3517 17.5081 16.289Z" fill="#8A8A8A"/>
<path opacity="0.967" fill-rule="evenodd" clip-rule="evenodd" d="M5.03901 18.2109C5.50804 18.2031 5.97679 18.2109 6.44526 18.2344C6.72149 18.4135 6.7918 18.6557 6.65619 18.9609C6.58387 19.049 6.49794 19.1193 6.39838 19.1719C5.9609 19.2031 5.52337 19.2031 5.08588 19.1719C4.76146 19.0009 4.67551 18.743 4.82807 18.3984C4.89355 18.3248 4.96387 18.2623 5.03901 18.2109Z" fill="#8A8A8A"/>
<path opacity="0.965" fill-rule="evenodd" clip-rule="evenodd" d="M17.5081 18.2109C17.9771 18.2031 18.4459 18.2109 18.9143 18.2344C19.216 18.4541 19.2707 18.7275 19.0784 19.0547C19.0119 19.0997 18.9416 19.1387 18.8675 19.1719C18.43 19.2031 17.9924 19.2031 17.555 19.1719C17.2176 18.969 17.1473 18.6955 17.344 18.3515C17.4152 18.3205 17.4699 18.2736 17.5081 18.2109Z" fill="#8A8A8A"/>
</svg>
