<svg width="24" height="24" viewBox="0 0 24 24" fill="none" xmlns="http://www.w3.org/2000/svg">
<g clip-path="url(#clip0_409_11179)">
<path opacity="0.968" fill-rule="evenodd" clip-rule="evenodd" d="M11.1325 -0.0234375C11.695 -0.0234375 12.2575 -0.0234375 12.82 -0.0234375C15.8128 0.40662 17.93 2.00037 19.1715 4.75781C20.1616 7.43667 19.8491 9.95227 18.234 12.3047C17.6697 12.9158 17.1228 13.5408 16.5934 14.1797C15.8873 15.1909 15.5279 16.3159 15.5153 17.5547C15.4997 18.711 15.484 19.8672 15.4684 21.0234C15.2406 22.2837 14.5453 23.1821 13.3825 23.7188C13.0998 23.8204 12.8185 23.9063 12.5387 23.9766C12.1637 23.9766 11.7887 23.9766 11.4137 23.9766C9.84148 23.6153 8.86494 22.6465 8.48403 21.0703C8.47775 19.6633 8.44653 18.257 8.39028 16.8516C8.23419 15.7104 7.7967 14.6948 7.07778 13.8047C4.35419 11.2895 3.58856 8.27391 4.7809 4.75781C6.02244 2.00037 8.13964 0.40662 11.1325 -0.0234375ZM11.9293 1.38281C14.6309 1.5022 16.5762 2.76782 17.7653 5.17969C18.6134 7.35975 18.3947 9.42225 17.109 11.3672C16.6576 11.8968 16.1888 12.4125 15.7028 12.9141C14.804 14.056 14.265 15.3529 14.0856 16.8047C12.6793 16.8672 11.2731 16.8672 9.86684 16.8047C9.60434 14.7861 8.70589 13.1142 7.17153 11.7891C5.59348 9.77419 5.26536 7.57106 6.18715 5.17969C7.35973 2.79669 9.27383 1.53107 11.9293 1.38281ZM9.86684 18.2578C11.2731 18.2578 12.6793 18.2578 14.0856 18.2578C14.0934 18.9923 14.0856 19.7267 14.0622 20.4609C13.9857 21.4346 13.4935 22.0987 12.5856 22.4531C11.4099 22.6973 10.5583 22.2832 10.0309 21.2109C9.94662 20.9682 9.89975 20.7182 9.89028 20.4609C9.86684 19.7267 9.85901 18.9923 9.86684 18.2578Z" fill="#8A8A8A"/>
<path opacity="0.916" fill-rule="evenodd" clip-rule="evenodd" d="M1.66406 2.03906C2.41069 2.7075 3.12944 3.41062 3.82031 4.14844C3.49219 4.50781 3.14844 4.85156 2.78906 5.17969C2.07031 4.49219 1.36719 3.78906 0.679688 3.07031C1.00882 2.7256 1.33695 2.38185 1.66406 2.03906Z" fill="#8A8A8A"/>
<path opacity="0.915" fill-rule="evenodd" clip-rule="evenodd" d="M22.1953 2.03906C22.5824 2.34791 22.9418 2.69166 23.2734 3.07031C22.5859 3.78906 21.8828 4.49219 21.1641 5.17969C20.8047 4.85156 20.4609 4.50781 20.1328 4.14844C20.8213 3.44434 21.5088 2.74121 22.1953 2.03906Z" fill="#8A8A8A"/>
<path opacity="0.968" fill-rule="evenodd" clip-rule="evenodd" d="M11.5083 4.19578C12.6001 4.05025 13.4048 4.45651 13.9223 5.41453C14.2168 6.21651 14.1231 6.96651 13.6411 7.66453C13.4313 7.87856 13.2125 8.08167 12.9848 8.2739C12.9105 8.37562 12.848 8.48503 12.7973 8.60203C12.7034 9.00225 12.6644 9.40851 12.6801 9.82078C12.2114 9.82078 11.7426 9.82078 11.2739 9.82078C11.0793 8.53617 11.4933 7.50492 12.5161 6.72703C12.7257 6.32578 12.6554 5.98982 12.3051 5.71921C11.8726 5.54128 11.5523 5.65846 11.3442 6.07078C11.2845 6.38029 11.261 6.69281 11.2739 7.00828C10.8051 7.00828 10.3364 7.00828 9.86764 7.00828C9.64766 5.60245 10.1945 4.66495 11.5083 4.19578Z" fill="#8A8A8A"/>
<path opacity="0.985" fill-rule="evenodd" clip-rule="evenodd" d="M-0.0234375 7.00781C0.945314 7.00781 1.91406 7.00781 2.88281 7.00781C2.88281 7.47656 2.88281 7.94531 2.88281 8.41406C1.91406 8.41406 0.945314 8.41406 -0.0234375 8.41406C-0.0234375 7.94531 -0.0234375 7.47656 -0.0234375 7.00781Z" fill="#8A8A8A"/>
<path opacity="0.985" fill-rule="evenodd" clip-rule="evenodd" d="M23.9766 7.00781C23.9766 7.47656 23.9766 7.94531 23.9766 8.41406C23.0078 8.41406 22.0391 8.41406 21.0703 8.41406C21.0703 7.94531 21.0703 7.47656 21.0703 7.00781C22.0391 7.00781 23.0078 7.00781 23.9766 7.00781Z" fill="#8A8A8A"/>
<path opacity="0.925" fill-rule="evenodd" clip-rule="evenodd" d="M2.74219 10.2422C3.12929 10.551 3.48866 10.8948 3.82031 11.2734C3.15691 11.9603 2.48504 12.64 1.80469 13.3125C1.75781 13.3438 1.71094 13.3438 1.66406 13.3125C1.35938 13.0078 1.05469 12.7031 0.750001 12.3984C0.71875 12.3516 0.71875 12.3047 0.750001 12.2578C1.42352 11.5921 2.08759 10.9202 2.74219 10.2422Z" fill="#8A8A8A"/>
<path opacity="0.925" fill-rule="evenodd" clip-rule="evenodd" d="M21.1172 10.2422C21.8319 10.8865 22.5272 11.5583 23.2031 12.2578C23.2344 12.3047 23.2344 12.3516 23.2031 12.3984C22.8984 12.7031 22.5938 13.0078 22.2891 13.3125C22.2422 13.3438 22.1953 13.3438 22.1484 13.3125C21.4681 12.64 20.7962 11.9603 20.1328 11.2734C20.4619 10.9287 20.79 10.585 21.1172 10.2422Z" fill="#8A8A8A"/>
<path fill-rule="evenodd" clip-rule="evenodd" d="M11.2734 11.2266C11.7422 11.2266 12.2109 11.2266 12.6797 11.2266C12.6797 11.6953 12.6797 12.1641 12.6797 12.6328C12.2109 12.6328 11.7422 12.6328 11.2734 12.6328C11.2734 12.1641 11.2734 11.6953 11.2734 11.2266Z" fill="#8A8A8A"/>
</g>
<defs>
<clipPath id="clip0_409_11179">
<rect width="24" height="24" fill="white"/>
</clipPath>
</defs>
</svg>
