<svg width="24" height="24" viewBox="0 0 24 24" fill="none" xmlns="http://www.w3.org/2000/svg">
<path opacity="0.956" fill-rule="evenodd" clip-rule="evenodd" d="M7.52344 2.13306C10.6496 2.11093 13.7746 2.13437 16.8984 2.20337C17.5 2.38298 17.8516 2.78142 17.9531 3.39869C17.9766 3.789 17.9843 4.17962 17.9766 4.57056C19.4923 4.56275 21.0079 4.57056 22.5234 4.594C23.0638 4.6813 23.4154 4.98597 23.5781 5.50806C23.6094 9.82056 23.6094 14.1331 23.5781 18.4456C23.4154 18.9677 23.0638 19.2723 22.5234 19.3596C21.0079 19.3831 19.4923 19.3909 17.9766 19.3831C17.9843 19.774 17.9766 20.1646 17.9531 20.5549C17.7848 21.3228 17.3082 21.7369 16.5234 21.7971C13.5234 21.8284 10.5234 21.8284 7.52344 21.7971C6.72891 21.7168 6.25233 21.2871 6.09375 20.5081C6.07031 20.1334 6.06253 19.7584 6.07031 19.3831C4.52336 19.3909 2.97648 19.3831 1.42969 19.3596C0.889289 19.2723 0.537727 18.9677 0.375 18.4456C0.34375 14.1331 0.34375 9.82056 0.375 5.50806C0.537727 4.98597 0.889289 4.6813 1.42969 4.594C2.97648 4.57056 4.52336 4.56275 6.07031 4.57056C6.06253 4.19524 6.07031 3.82024 6.09375 3.44556C6.19927 2.81941 6.55083 2.40535 7.14844 2.20337C7.28273 2.1948 7.4077 2.17136 7.52344 2.13306ZM7.47656 3.25806C10.5079 3.25025 13.5391 3.25806 16.5703 3.2815C16.654 3.31827 16.7243 3.37296 16.7812 3.44556C16.8592 9.09803 16.8748 14.7543 16.8281 20.4143C16.7913 20.498 16.7367 20.5683 16.6641 20.6252C13.6054 20.703 10.5429 20.7187 7.47656 20.6721C7.39284 20.6353 7.32253 20.5807 7.26562 20.5081C7.18767 14.8556 7.17206 9.19933 7.21875 3.53931C7.2825 3.42106 7.36842 3.32731 7.47656 3.25806ZM1.52344 5.69556C3.03906 5.69556 4.55469 5.69556 6.07031 5.69556C6.07031 6.75808 6.07031 7.82054 6.07031 8.88306C5.10155 8.88306 4.13281 8.88306 3.16406 8.88306C3.16406 9.25806 3.16406 9.63306 3.16406 10.0081C4.13281 10.0081 5.10155 10.0081 6.07031 10.0081C6.07031 11.1955 6.07031 12.3831 6.07031 13.5706C5.50758 13.5627 4.94508 13.5706 4.38281 13.594C3.47195 13.876 3.07351 14.4932 3.1875 15.4456C3.36677 16.1717 3.82771 16.5857 4.57031 16.6877C5.07005 16.7112 5.57006 16.719 6.07031 16.7112C6.07031 17.2268 6.07031 17.7424 6.07031 18.2581C4.54344 18.2735 3.02 18.2579 1.5 18.2112C1.46108 14.036 1.46888 9.86415 1.52344 5.69556ZM17.9766 5.69556C19.4722 5.68014 20.9644 5.69575 22.4531 5.74244C22.4844 9.8987 22.4844 14.0549 22.4531 18.2112C20.9644 18.2579 19.4722 18.2735 17.9766 18.2581C17.9766 17.7424 17.9766 17.2268 17.9766 16.7112C18.4456 16.719 18.9143 16.7112 19.3828 16.6877C20.4211 16.479 20.8821 15.8462 20.7656 14.7893C20.6172 14.1409 20.2187 13.7425 19.5703 13.594C19.0393 13.5706 18.508 13.5627 17.9766 13.5706C17.9766 12.3831 17.9766 11.1955 17.9766 10.0081C18.8985 10.0081 19.8203 10.0081 20.7422 10.0081C20.7422 9.63306 20.7422 9.25806 20.7422 8.88306C19.8203 8.88306 18.8985 8.88306 17.9766 8.88306C17.9766 7.82054 17.9766 6.75808 17.9766 5.69556ZM4.57031 14.6956C5.07033 14.6956 5.5703 14.6956 6.07031 14.6956C6.07031 14.9924 6.07031 15.2893 6.07031 15.5862C5.58567 15.594 5.10131 15.5862 4.61719 15.5627C4.3513 15.4531 4.24974 15.2577 4.3125 14.9768C4.37624 14.8585 4.46217 14.7648 4.57031 14.6956ZM17.9766 14.6956C18.4612 14.6878 18.9456 14.6956 19.4297 14.719C19.672 14.8976 19.7266 15.1241 19.5938 15.3987C19.5197 15.4709 19.4338 15.5256 19.3359 15.5627C18.8831 15.5862 18.4299 15.594 17.9766 15.5862C17.9766 15.2893 17.9766 14.9924 17.9766 14.6956Z" fill="#8A8A8A"/>
<path opacity="0.946" fill-rule="evenodd" clip-rule="evenodd" d="M8.46094 7.28906C10.8672 7.28906 13.2735 7.28906 15.6797 7.28906C15.6797 7.66406 15.6797 8.03906 15.6797 8.41406C13.2735 8.41406 10.8672 8.41406 8.46094 8.41406C8.46094 8.03906 8.46094 7.66406 8.46094 7.28906Z" fill="#8A8A8A"/>
<path opacity="0.938" fill-rule="evenodd" clip-rule="evenodd" d="M10.1484 10.8516C11.3828 10.8516 12.6172 10.8516 13.8516 10.8516C13.8516 11.2266 13.8516 11.6016 13.8516 11.9766C12.6172 11.9766 11.3828 11.9766 10.1484 11.9766C10.1484 11.6016 10.1484 11.2266 10.1484 10.8516Z" fill="#8A8A8A"/>
<path opacity="0.951" fill-rule="evenodd" clip-rule="evenodd" d="M10.2895 14.9766C11.3678 14.9687 12.4459 14.9766 13.5239 15C14.6454 15.2156 15.1688 15.8953 15.0942 17.0391C14.9302 17.8281 14.4536 18.3047 13.6645 18.4688C12.4927 18.5 11.3208 18.5 10.1489 18.4688C9.04261 18.155 8.58165 17.4285 8.7661 16.2891C9.0098 15.5371 9.51765 15.0996 10.2895 14.9766ZM10.3364 16.1016C10.1796 16.1534 10.0468 16.2471 9.93797 16.3828C9.73894 16.8168 9.85613 17.1371 10.2895 17.3438C11.3677 17.375 12.4458 17.375 13.5239 17.3438C13.6364 17.3095 13.7379 17.2548 13.8286 17.1797C14.1201 16.6923 14.0029 16.3408 13.477 16.125C12.4303 16.1016 11.3834 16.0937 10.3364 16.1016Z" fill="#8A8A8A"/>
</svg>
