<svg width="24" height="24" viewBox="0 0 24 24" fill="none" xmlns="http://www.w3.org/2000/svg">
<g clip-path="url(#clip0_404_4135)">
<path opacity="0.964" fill-rule="evenodd" clip-rule="evenodd" d="M10.9453 -0.0234375C11.6328 -0.0234375 12.3203 -0.0234375 13.0078 -0.0234375C17.7078 0.564412 21.0593 3.00191 23.0625 7.28906C23.5451 8.46956 23.8498 9.68831 23.9766 10.9453C23.9766 11.6328 23.9766 12.3203 23.9766 13.0078C23.3887 17.7078 20.9512 21.0593 16.6641 23.0625C15.4836 23.5451 14.2648 23.8498 13.0078 23.9766C12.3203 23.9766 11.6328 23.9766 10.9453 23.9766C6.24534 23.3887 2.89378 20.9512 0.890625 16.6641C0.407997 15.4836 0.103309 14.2648 -0.0234375 13.0078C-0.0234375 12.3203 -0.0234375 11.6328 -0.0234375 10.9453C0.564412 6.24534 3.00191 2.89378 7.28906 0.890625C8.46956 0.407997 9.68831 0.103309 10.9453 -0.0234375ZM10.9922 1.52344C14.9619 1.31733 18.1416 2.78608 20.5312 5.92969C22.6517 9.12872 23.0111 12.5194 21.6094 16.1016C19.8731 19.7638 16.9903 21.8654 12.9609 22.4062C8.99016 22.6353 5.81044 21.1743 3.42188 18.0234C1.30137 14.8244 0.941995 11.4338 2.34375 7.85156C4.09043 4.19275 6.97327 2.08337 10.9922 1.52344Z" fill="#8A8A8A"/>
<path opacity="0.978" fill-rule="evenodd" clip-rule="evenodd" d="M7.94574 5.97657C10.6333 5.96874 13.3208 5.97657 16.0082 6.00001C16.4293 6.20968 16.5777 6.54563 16.4536 7.00782C16.3676 7.21876 16.2192 7.36721 16.0082 7.45313C15.4295 7.46096 14.8514 7.4844 14.2739 7.52344C14.5913 7.94396 14.8101 8.41271 14.9301 8.92969C15.2885 8.96865 15.6479 8.99208 16.0082 9.00001C16.3358 9.13158 16.492 9.37374 16.477 9.72657C16.492 10.0794 16.3358 10.3216 16.0082 10.4531C15.6479 10.4611 15.2885 10.4845 14.9301 10.5234C14.4833 12.1186 13.4521 13.0952 11.8364 13.4531C11.2583 13.4687 10.6801 13.4844 10.102 13.5C11.6879 15.0859 13.2739 16.6719 14.8598 18.2578C15.1548 19.1188 14.8501 19.5172 13.9457 19.4531C13.8833 19.4219 13.8207 19.3906 13.7582 19.3594C11.7036 17.3047 9.64885 15.25 7.59418 13.1953C7.43794 12.8828 7.43794 12.5703 7.59418 12.2578C7.68502 12.1357 7.80221 12.0497 7.94574 12C9.03947 11.9844 10.1333 11.9687 11.227 11.9531C12.2028 11.8912 12.8903 11.4146 13.2895 10.5234C11.5084 10.4844 9.72718 10.461 7.94574 10.4531C7.52471 10.2435 7.37625 9.90751 7.50043 9.44532C7.58635 9.23438 7.7348 9.08593 7.94574 9.00001C9.72718 8.99218 11.5084 8.96874 13.2895 8.92969C12.8903 8.03851 12.2028 7.56193 11.227 7.50001C10.1333 7.4844 9.03947 7.46874 7.94574 7.45313C7.52471 7.24346 7.37625 6.90751 7.50043 6.44532C7.59521 6.23344 7.74366 6.07721 7.94574 5.97657Z" fill="#8A8A8A"/>
</g>
<defs>
<clipPath id="clip0_404_4135">
<rect width="24" height="24" fill="white"/>
</clipPath>
</defs>
</svg>
