<svg width="49" height="49" viewBox="0 0 49 49" fill="none" xmlns="http://www.w3.org/2000/svg">
<g clip-path="url(#clip0_404_240)">
<path opacity="0.983" fill-rule="evenodd" clip-rule="evenodd" d="M9.28548 -0.0478516C19.3172 -0.0478516 29.349 -0.0478516 39.3807 -0.0478516C39.9297 0.115542 40.4059 0.401256 40.8093 0.809291C29.8409 0.840991 18.8885 0.809245 7.95215 0.714053C7.99527 0.62278 8.05877 0.543415 8.14262 0.475958C8.52124 0.271549 8.9022 0.0969465 9.28548 -0.0478516Z" fill="#25EF9B"/>
<path opacity="0.999" fill-rule="evenodd" clip-rule="evenodd" d="M7.95233 0.714355C18.8887 0.809547 29.8411 0.841294 40.8095 0.809594C41.1 1.00475 41.3221 1.25871 41.4761 1.5715C30.0476 1.5715 18.619 1.5715 7.19043 1.5715C7.37641 1.22671 7.63038 0.940992 7.95233 0.714355Z" fill="#24EE9D"/>
<path opacity="0.998" fill-rule="evenodd" clip-rule="evenodd" d="M7.19082 1.57129C18.6194 1.57129 30.048 1.57129 41.4765 1.57129C41.8712 2.28843 41.9981 3.05034 41.8575 3.857C30.1749 3.9205 18.4924 3.98398 6.80986 4.04748C6.63105 3.1657 6.75804 2.3403 7.19082 1.57129Z" fill="#24EBA0"/>
<path opacity="0.998" fill-rule="evenodd" clip-rule="evenodd" d="M41.8572 3.85693C41.7684 4.35112 41.578 4.79557 41.2858 5.19027C29.9485 5.22165 18.6152 5.1899 7.28576 5.09503C7.0724 4.77316 6.91368 4.42395 6.80957 4.04741C18.4921 3.98391 30.1746 3.92043 41.8572 3.85693Z" fill="#23E8A3"/>
<path opacity="0.99" fill-rule="evenodd" clip-rule="evenodd" d="M7.28516 5.09521C18.6146 5.19008 29.9479 5.22183 41.2852 5.19045C40.7982 5.83127 40.1633 6.25984 39.3804 6.47617C36.7132 6.49205 34.0465 6.53967 31.3804 6.61902C31.488 6.72591 31.5515 6.8529 31.5709 6.99998C28.3165 6.96839 25.0784 7.00014 21.8566 7.09521C21.0653 6.78136 20.2399 6.60676 19.3804 6.57141C16.0153 6.53966 12.6502 6.50791 9.28516 6.47617C8.42185 6.2946 7.75518 5.83428 7.28516 5.09521Z" fill="#21E6A6"/>
<path opacity="0.992" fill-rule="evenodd" clip-rule="evenodd" d="M21.8564 7.09485C25.0783 6.99977 28.3163 6.96802 31.5707 6.99961C32.077 7.72674 32.458 8.52039 32.7136 9.38056C30.2538 9.47559 27.7776 9.50733 25.285 9.4758C24.7615 8.96826 24.2218 8.4762 23.666 7.99961C23.0927 7.63135 22.4896 7.32976 21.8564 7.09485Z" fill="#20E2AA"/>
<path opacity="0.995" fill-rule="evenodd" clip-rule="evenodd" d="M32.7137 9.38086C32.8125 9.51708 32.876 9.67581 32.9042 9.85705C30.5407 10.0155 28.1597 10.1108 25.7613 10.1428C25.5664 9.94753 25.4076 9.72534 25.2852 9.4761C27.7777 9.50763 30.2539 9.47589 32.7137 9.38086Z" fill="#1FE0AE"/>
<path opacity="0.991" fill-rule="evenodd" clip-rule="evenodd" d="M32.904 9.85693C33.0854 10.2757 33.2124 10.7201 33.2849 11.1903C35.2852 11.1744 37.2852 11.1903 39.2849 11.2379C40.3652 11.4751 41.1271 12.0942 41.5706 13.095C31.094 13.1584 20.6495 13.0948 10.2373 12.9046C10.7146 12.0295 11.4448 11.474 12.4278 11.2379C17.0313 11.222 21.6344 11.1744 26.2373 11.095C26.0761 10.7726 25.9173 10.455 25.7611 10.1426C28.1595 10.1106 30.5404 10.0154 32.904 9.85693Z" fill="#1DDCB2"/>
<path opacity="0.998" fill-rule="evenodd" clip-rule="evenodd" d="M10.2379 12.9048C20.6501 13.0951 31.0945 13.1586 41.5712 13.0953C41.6347 13.254 41.6981 13.4127 41.7617 13.5715C31.1518 13.603 20.5486 13.5713 9.95215 13.4762C10.0121 13.2619 10.1074 13.0715 10.2379 12.9048Z" fill="#1DD9B5"/>
<path opacity="0.998" fill-rule="evenodd" clip-rule="evenodd" d="M9.95186 13.4761C20.5483 13.5711 31.1515 13.6028 41.7614 13.5713C42.048 14.7092 41.8259 15.725 41.0947 16.6189C30.965 16.6186 20.8063 16.6186 10.6185 16.6189C10.2593 16.2503 10.0212 15.8058 9.90424 15.2856C9.83272 14.6776 9.84862 14.0745 9.95186 13.4761Z" fill="#1BD7B8"/>
<path opacity="0.994" fill-rule="evenodd" clip-rule="evenodd" d="M41.0953 16.6194C40.6644 17.1912 40.093 17.5563 39.381 17.7147C37.3495 17.7623 35.3178 17.7782 33.2858 17.7623C33.199 18.333 33.0404 18.8728 32.8096 19.3813C32.7366 19.4453 32.673 19.5247 32.6191 19.6194C30.1268 19.6985 27.6506 19.6826 25.1906 19.5718C25.6252 19.0247 26.0062 18.4373 26.3334 17.8099C21.6668 17.7782 17.0001 17.7464 12.3334 17.7147C11.6215 17.5563 11.0501 17.1912 10.6191 16.6194C20.807 16.619 30.9656 16.619 41.0953 16.6194Z" fill="#1AD2BD"/>
<path opacity="0.997" fill-rule="evenodd" clip-rule="evenodd" d="M32.8092 19.3809C32.7365 19.7272 32.6094 20.0447 32.4282 20.3332C29.7932 20.3332 27.1584 20.3332 24.5234 20.3332C24.7484 20.0769 24.9707 19.8229 25.1901 19.5713C27.6501 19.6821 30.1263 19.698 32.6187 19.619C32.6726 19.5242 32.7361 19.4449 32.8092 19.3809Z" fill="#18CFC2"/>
<path opacity="0.976" fill-rule="evenodd" clip-rule="evenodd" d="M24.5239 20.3335C27.1588 20.3335 29.7937 20.3335 32.4286 20.3335C32.1045 21.2049 31.66 21.9985 31.0953 22.7144C23.6667 22.7144 16.2381 22.7144 8.80957 22.7144C8.96656 22.5785 9.15704 22.4992 9.381 22.4764C13.098 22.4723 16.8123 22.4088 20.5239 22.2859C22.027 21.9628 23.3603 21.312 24.5239 20.3335Z" fill="#17CCC5"/>
<path opacity="0.996" fill-rule="evenodd" clip-rule="evenodd" d="M8.80952 22.7144C16.2381 22.7144 23.6667 22.7144 31.0952 22.7144C30.6952 23.4323 30.1872 24.0671 29.5714 24.6191C22.0636 24.524 14.5398 24.4922 7 24.5239C7.3208 23.6317 7.92397 23.0285 8.80952 22.7144Z" fill="#15C9C9"/>
<path opacity="0.996" fill-rule="evenodd" clip-rule="evenodd" d="M6.99967 24.5236C14.5395 24.4919 22.0633 24.5237 29.5711 24.6188C28.9629 25.2587 28.2962 25.8302 27.5711 26.3331C20.6665 26.238 13.7459 26.2062 6.80919 26.2379C6.67116 25.6389 6.73464 25.0675 6.99967 24.5236Z" fill="#14C6CC"/>
<path opacity="0.996" fill-rule="evenodd" clip-rule="evenodd" d="M6.80957 26.238C13.7462 26.2062 20.6669 26.238 27.5715 26.3332C26.5005 27.1388 25.326 27.7738 24.0477 28.238C18.5995 28.1738 13.1392 28.1102 7.66671 28.0475C7.1539 27.5612 6.86819 26.958 6.80957 26.238Z" fill="#13C3D0"/>
<path opacity="0.986" fill-rule="evenodd" clip-rule="evenodd" d="M7.66602 28.0474C13.1385 28.1101 18.5988 28.1736 24.047 28.2378C22.0066 28.8954 19.9113 29.197 17.7613 29.1426C17.8142 29.1791 17.8459 29.2267 17.8565 29.2855C14.8561 29.2538 11.8719 29.2856 8.90411 29.3807C8.49409 28.9387 8.08139 28.4943 7.66602 28.0474Z" fill="#12C0D3"/>
<path opacity="0.993" fill-rule="evenodd" clip-rule="evenodd" d="M17.8577 29.2858C18.6202 30.0483 19.3503 30.842 20.0481 31.6667C17.0803 31.7618 14.0961 31.7936 11.0957 31.7619C10.3332 30.9994 9.60308 30.2057 8.90527 29.381C11.8731 29.2859 14.8573 29.2541 17.8577 29.2858Z" fill="#11BDD6"/>
<path opacity="0.994" fill-rule="evenodd" clip-rule="evenodd" d="M20.0471 31.6665C20.3011 31.857 20.5233 32.0792 20.7138 32.3332C17.6979 32.3332 14.6821 32.3332 11.6662 32.3332C11.444 32.1744 11.2535 31.9839 11.0947 31.7617C14.0951 31.7934 17.0793 31.7616 20.0471 31.6665Z" fill="#10BAD9"/>
<path opacity="0.991" fill-rule="evenodd" clip-rule="evenodd" d="M11.666 32.3335C14.6819 32.3335 17.6977 32.3335 20.7136 32.3335C21.704 33.2919 22.6247 34.3078 23.4755 35.3811C20.4914 35.3811 17.5073 35.3811 14.5232 35.3811C13.5385 34.3964 12.5861 33.3805 11.666 32.3335Z" fill="#0FB8DD"/>
<path opacity="0.994" fill-rule="evenodd" clip-rule="evenodd" d="M14.5234 35.3809C17.5075 35.3809 20.4917 35.3809 23.4758 35.3809C24.1776 35.9873 24.8126 36.654 25.3806 37.3809C22.3802 37.3492 19.396 37.381 16.4282 37.4761C15.7608 36.8087 15.1259 36.1102 14.5234 35.3809Z" fill="#0DB3E2"/>
<path opacity="0.992" fill-rule="evenodd" clip-rule="evenodd" d="M25.3811 37.381C26.1119 38.1118 26.8103 38.8737 27.4763 39.6667C24.4759 39.6351 21.4918 39.6669 18.5239 39.7619C17.7931 39.0311 17.0947 38.2692 16.4287 37.4762C19.3965 37.3812 22.3807 37.3493 25.3811 37.381Z" fill="#0BB0E6"/>
<path opacity="0.991" fill-rule="evenodd" clip-rule="evenodd" d="M27.4758 39.6666C28.2088 40.3994 28.9072 41.1613 29.5711 41.9523C26.635 42.0474 23.6826 42.0791 20.7139 42.0476C19.9846 41.2897 19.2545 40.5278 18.5234 39.7618C21.4912 39.6668 24.4754 39.635 27.4758 39.6666Z" fill="#0AACEB"/>
<path opacity="0.992" fill-rule="evenodd" clip-rule="evenodd" d="M29.571 41.9521C30.0531 42.3387 30.4658 42.7832 30.8091 43.2855C27.8404 43.254 24.8881 43.2857 21.952 43.3807C21.472 42.9961 21.0593 42.5516 20.7139 42.0474C23.6825 42.0789 26.6349 42.0472 29.571 41.9521Z" fill="#09A9EE"/>
<path opacity="0.993" fill-rule="evenodd" clip-rule="evenodd" d="M30.8093 43.2857C31.2944 43.748 31.5801 44.3194 31.6664 45C28.9433 45.0944 26.2131 45.1262 23.476 45.0952C22.9354 44.5546 22.4275 43.9831 21.9521 43.3809C24.8882 43.2859 27.8406 43.2542 30.8093 43.2857Z" fill="#08A7F1"/>
<path opacity="0.992" fill-rule="evenodd" clip-rule="evenodd" d="M31.6661 45C31.7376 45.6871 31.6106 46.3221 31.2851 46.9048C29.2686 46.8732 27.2686 46.905 25.2851 47C24.6845 46.3676 24.0814 45.7327 23.4756 45.0952C26.2127 45.1262 28.9429 45.0944 31.6661 45Z" fill="#06A4F5"/>
<path opacity="0.988" fill-rule="evenodd" clip-rule="evenodd" d="M31.2852 46.9043C31.1388 47.3386 30.8848 47.7037 30.5233 47.9996C30.0904 48.343 29.6142 48.5811 29.0947 48.7139C28.5868 48.7139 28.0788 48.7139 27.5709 48.7139C26.6208 48.3993 25.8589 47.8279 25.2852 46.9996C27.2687 46.9046 29.2687 46.8728 31.2852 46.9043Z" fill="#06A1F8"/>
</g>
<defs>
<clipPath id="clip0_404_240">
<rect width="48.7619" height="48.7619" fill="white"/>
</clipPath>
</defs>
</svg>
