<svg width="144" height="122" viewBox="0 0 144 122" fill="none" xmlns="http://www.w3.org/2000/svg">
<rect x="17.4805" y="26.7402" width="119.861" height="26.7397" rx="13.3699" fill="#D9D9D9" fill-opacity="0.29"/>
<rect y="52.6436" width="119.861" height="26.7397" rx="13.3699" fill="#D9D9D9" fill-opacity="0.29"/>
<rect x="10.8203" y="79.3838" width="66.5896" height="26.7397" rx="13.3699" fill="#D9D9D9" fill-opacity="0.29"/>
<rect x="75.7461" width="68.2544" height="26.7397" rx="13.3699" fill="#D9D9D9" fill-opacity="0.29"/>
<g clip-path="url(#clip0_409_24194)">
<rect x="29.9648" y="22.5615" width="77.4104" height="77.7123" rx="38.7052" fill="#83C417"/>
<path d="M61.0349 22.7287C46.9135 23.4269 39.4295 26.3108 35.1961 32.7008C31.507 38.2712 29.9648 46.7103 29.9648 61.418C29.9648 76.1256 31.507 84.5647 35.1961 90.1351C38.7038 95.4171 44.4491 98.2858 54.0044 99.5C58.4343 100.062 61.0953 100.198 68.6701 100.198C81.1888 100.198 87.6749 99.3786 93.3598 97.1019C97.0942 95.6144 100.103 93.2011 102.174 90.1047C104.941 85.9156 106.393 80.3907 107.103 71.2838C107.36 67.9294 107.36 54.9065 107.103 51.5521C106.393 42.3997 104.956 36.9355 102.144 32.7008C98.4096 27.0697 92.1049 24.1555 81.34 23.093C76.1843 22.5921 67.1733 22.4252 61.0349 22.7287ZM79.1779 29.3768C95.4311 30.9401 99.1353 34.6892 100.602 51.0968C100.738 52.5691 100.798 55.9538 100.798 61.418C100.798 66.8821 100.738 70.2668 100.602 71.7391C99.1202 88.1923 95.3404 91.9868 78.9511 93.4743C75.9424 93.7475 61.3977 93.7475 58.389 93.4743C41.9997 91.9868 38.2199 88.1923 36.7383 71.7391C36.4661 68.7187 36.4661 54.1172 36.7383 51.0968C37.8873 38.3319 40.5029 33.6419 47.8055 31.2285C51.0562 30.1661 54.6545 29.6196 61.4128 29.1795C63.1818 29.0732 77.6055 29.225 79.1779 29.3768Z" fill="#83C417"/>
<path d="M78.6272 52.3291C78.4206 52.4454 75.4891 55.2736 72.1443 58.6184L66.0358 64.7011L63.3625 62.0536C60.3664 59.0833 60.0306 58.8638 58.7779 59.0059C57.0216 59.2125 55.9239 61.0205 56.5437 62.6735C56.7375 63.1901 57.3961 63.9262 60.4697 67.0127C64.3053 70.8741 64.9122 71.3649 65.8808 71.3649C67.1206 71.3649 66.9139 71.5457 74.6625 63.8229C79.0663 59.4449 82.0495 56.3713 82.2045 56.0614C82.734 55.0541 82.4757 53.5818 81.6363 52.807C80.9389 52.1483 79.4408 51.9159 78.6272 52.3291Z" fill="white"/>
</g>
<ellipse cx="133.595" cy="83.1441" rx="3.74567" ry="3.76027" fill="#83C417"/>
<path d="M32.2941 3.76027C32.2941 5.28841 31.0611 6.52055 29.5484 6.52055C28.0357 6.52055 26.8027 5.28841 26.8027 3.76027C26.8027 2.23214 28.0357 1 29.5484 1C31.0611 1 32.2941 2.23214 32.2941 3.76027Z" stroke="#83C417" stroke-width="2"/>
<path d="M96.0558 118.24C96.0558 120.042 94.6008 121.5 92.8101 121.5C91.0194 121.5 89.5645 120.042 89.5645 118.24C89.5645 116.437 91.0194 114.979 92.8101 114.979C94.6008 114.979 96.0558 116.437 96.0558 118.24Z" stroke="#83C417"/>
<defs>
<clipPath id="clip0_409_24194">
<rect x="29.9648" y="22.5615" width="77.4104" height="77.7123" rx="38.7052" fill="white"/>
</clipPath>
</defs>
</svg>
