<svg width="24" height="24" viewBox="0 0 24 24" fill="none" xmlns="http://www.w3.org/2000/svg">
<path opacity="0.964" fill-rule="evenodd" clip-rule="evenodd" d="M11.3206 2.22625C13.6981 2.05888 15.3934 3.04326 16.4065 5.17937C17.115 7.2595 16.6853 9.06419 15.1175 10.5934C13.4501 11.8918 11.6532 12.0949 9.72685 11.2028C7.75046 9.99166 6.94576 8.23384 7.31279 5.92937C7.89418 3.8712 9.23012 2.63682 11.3206 2.22625ZM11.93 3.72625C13.626 3.83633 14.6963 4.71133 15.1409 6.35125C15.3516 8.04737 14.6875 9.2583 13.1487 9.98406C11.6371 10.4696 10.3793 10.1024 9.37529 8.8825C8.50909 7.54919 8.54035 6.23669 9.46904 4.945C10.1224 4.19251 10.9427 3.78626 11.93 3.72625Z" fill="#8A8A8A"/>
<path opacity="0.975" fill-rule="evenodd" clip-rule="evenodd" d="M8.55465 13.1953C10.836 13.1875 13.1172 13.1953 15.3984 13.2188C17.7981 13.4781 19.4621 14.7203 20.3906 16.9453C20.7176 17.8125 20.8114 18.7031 20.6718 19.6172C20.3739 20.7588 19.6474 21.4541 18.4921 21.7031C14.1484 21.7344 9.80466 21.7344 5.4609 21.7031C4.2294 21.4247 3.48722 20.667 3.23434 19.4297C3.15529 16.7917 4.28811 14.8776 6.63277 13.6875C7.25513 13.4265 7.89573 13.2624 8.55465 13.1953ZM8.6484 14.7422C10.8672 14.7344 13.086 14.7422 15.3046 14.7656C17.3275 15.054 18.6009 16.1868 19.125 18.1641C19.2111 18.5719 19.2111 18.9781 19.125 19.3828C18.9128 19.8915 18.53 20.1649 17.9765 20.2031C13.9765 20.2344 9.97651 20.2344 5.97652 20.2031C5.36616 20.1443 4.96773 19.824 4.78121 19.2422C4.74465 17.2602 5.62744 15.8617 7.42965 15.0469C7.83118 14.8997 8.23744 14.7981 8.6484 14.7422Z" fill="#8A8A8A"/>
</svg>
