<?xml version="1.0" encoding="UTF-8"?>
<!DOCTYPE svg PUBLIC "-//W3C//DTD SVG 1.1//EN" "http://www.w3.org/Graphics/SVG/1.1/DTD/svg11.dtd">
<svg xmlns="http://www.w3.org/2000/svg" version="1.1" width="512px" height="512px" style="shape-rendering:geometricPrecision; text-rendering:geometricPrecision; image-rendering:optimizeQuality; fill-rule:evenodd; clip-rule:evenodd" xmlns:xlink="http://www.w3.org/1999/xlink">
<g><path style="opacity:0.919" fill="#000000" d="M 314.5,-0.5 C 317.5,-0.5 320.5,-0.5 323.5,-0.5C 373.676,13.1724 406.843,44.839 423,94.5C 426.838,105.046 423.338,109.879 412.5,109C 411.667,108.167 410.833,107.333 410,106.5C 395.807,56.3086 363.307,25.142 312.5,13C 309.409,7.79874 310.075,3.29874 314.5,-0.5 Z"/></g>
<g><path style="opacity:0.916" fill="#000000" d="M 311.5,51.5 C 339.772,55.9316 358.939,71.5983 369,98.5C 371.072,103.485 370.905,108.319 368.5,113C 364.833,115 361.167,115 357.5,113C 350.707,88.5396 335.04,73.2063 310.5,67C 304.939,61.3527 305.272,56.186 311.5,51.5 Z"/></g>
<g><path style="opacity:0.965" fill="#020201" d="M 492.5,197.5 C 489.042,196.892 486.542,194.892 485,191.5C 487.88,175.142 483.38,161.308 471.5,150C 448.841,136.706 430.675,141.206 417,163.5C 416.333,165.5 415.667,167.5 415,169.5C 414.667,187.833 414.333,206.167 414,224.5C 411.649,228.511 408.149,230.011 403.5,229C 364.167,189.667 324.833,150.333 285.5,111C 267.848,97.9978 252.348,100.164 239,117.5C 233.93,128.848 234.596,139.848 241,150.5C 266,175.5 291,200.5 316,225.5C 319.325,234.681 316.158,238.515 306.5,237C 272.833,203.333 239.167,169.667 205.5,136C 187.939,124.099 172.772,126.599 160,143.5C 154.634,155.405 155.634,166.738 163,177.5C 197,211.5 231,245.5 265,279.5C 267.353,285.789 265.186,289.789 258.5,291.5C 257.062,291.281 255.729,290.781 254.5,290C 225.5,261 196.5,232 167.5,203C 159.718,196.803 151.051,194.97 141.5,197.5C 120.097,206.322 114.263,221.322 124,242.5C 128.67,248.337 133.837,253.67 139.5,258.5C 166.798,286.299 194.298,313.965 222,341.5C 224.5,347.827 222.333,351.493 215.5,352.5C 213.701,352.423 212.034,351.923 210.5,351C 194.632,334.965 178.632,319.132 162.5,303.5C 151.15,287.212 136.483,283.045 118.5,291C 103.381,302.65 100.548,316.817 110,333.5C 129.368,353.035 148.868,372.368 168.5,391.5C 185.798,409.299 203.298,426.965 221,444.5C 224.076,448.331 224.243,452.331 221.5,456.5C 217.44,459.234 213.44,459.068 209.5,456C 170.943,418.11 133.109,379.61 96,340.5C 86.5532,322.208 87.5532,304.541 99,287.5C 107.062,278.217 117.229,272.717 129.5,271C 120.109,263.286 112.609,254.119 107,243.5C 98.6768,216.325 107.177,196.491 132.5,184C 137.092,182.519 141.759,181.352 146.5,180.5C 136.546,158.724 140.213,139.557 157.5,123C 172.87,112.418 189.203,110.751 206.5,118C 210.951,120.783 215.117,123.95 219,127.5C 227.329,95.2451 247.829,82.7451 280.5,90C 285.997,92.2454 290.997,95.2454 295.5,99C 329.667,133.167 363.833,167.333 398,201.5C 398.139,189.792 398.806,178.125 400,166.5C 405.601,145.899 418.768,133.066 439.5,128C 465.429,124.545 484.262,134.379 496,157.5C 499.958,168.495 501.291,179.828 500,191.5C 498.692,195.062 496.192,197.062 492.5,197.5 Z"/></g>
<g><path style="opacity:1" fill="#f5ed85" d="M 492.5,197.5 C 492.5,204.167 492.5,210.833 492.5,217.5C 489.293,218.026 486.793,219.692 485,222.5C 484.667,272.167 484.333,321.833 484,371.5C 481.102,393.544 472.769,413.21 459,430.5C 445.725,446.112 430.891,459.946 414.5,472C 370.355,499.411 324.022,503.744 275.5,485C 265.175,479.84 255.175,474.173 245.5,468C 242.007,467.131 239.007,467.964 236.5,470.5C 230.871,466.539 225.871,461.873 221.5,456.5C 224.243,452.331 224.076,448.331 221,444.5C 203.298,426.965 185.798,409.299 168.5,391.5C 164.233,378.097 161.066,364.43 159,350.5C 157.516,334.557 158.683,318.89 162.5,303.5C 178.632,319.132 194.632,334.965 210.5,351C 212.034,351.923 213.701,352.423 215.5,352.5C 222.333,351.493 224.5,347.827 222,341.5C 194.298,313.965 166.798,286.299 139.5,258.5C 137.627,243.221 137.127,227.888 138,212.5C 139.014,207.445 140.181,202.445 141.5,197.5C 151.051,194.97 159.718,196.803 167.5,203C 196.5,232 225.5,261 254.5,290C 255.729,290.781 257.062,291.281 258.5,291.5C 265.186,289.789 267.353,285.789 265,279.5C 231,245.5 197,211.5 163,177.5C 155.634,166.738 154.634,155.405 160,143.5C 172.772,126.599 187.939,124.099 205.5,136C 239.167,169.667 272.833,203.333 306.5,237C 316.158,238.515 319.325,234.681 316,225.5C 291,200.5 266,175.5 241,150.5C 234.596,139.848 233.93,128.848 239,117.5C 252.348,100.164 267.848,97.9978 285.5,111C 324.833,150.333 364.167,189.667 403.5,229C 408.149,230.011 411.649,228.511 414,224.5C 414.333,206.167 414.667,187.833 415,169.5C 415.667,167.5 416.333,165.5 417,163.5C 430.675,141.206 448.841,136.706 471.5,150C 483.38,161.308 487.88,175.142 485,191.5C 486.542,194.892 489.042,196.892 492.5,197.5 Z"/></g>
<g><path style="opacity:1" fill="#eacc74" d="M 141.5,197.5 C 140.181,202.445 139.014,207.445 138,212.5C 137.127,227.888 137.627,243.221 139.5,258.5C 133.837,253.67 128.67,248.337 124,242.5C 114.263,221.322 120.097,206.322 141.5,197.5 Z"/></g>
<g><path style="opacity:0.954" fill="#020201" d="M 492.5,217.5 C 496.637,217.482 499.137,219.482 500,223.5C 500.667,270.5 500.667,317.5 500,364.5C 497.816,396.852 485.816,424.852 464,448.5C 448.541,465.641 431.041,480.141 411.5,492C 392.232,502.258 371.899,508.758 350.5,511.5C 338.833,511.5 327.167,511.5 315.5,511.5C 286.775,507.756 260.609,497.423 237,480.5C 235.265,477.21 235.099,473.877 236.5,470.5C 239.007,467.964 242.007,467.131 245.5,468C 255.175,474.173 265.175,479.84 275.5,485C 324.022,503.744 370.355,499.411 414.5,472C 430.891,459.946 445.725,446.112 459,430.5C 472.769,413.21 481.102,393.544 484,371.5C 484.333,321.833 484.667,272.167 485,222.5C 486.793,219.692 489.293,218.026 492.5,217.5 Z"/></g>
<g><path style="opacity:1" fill="#060503" d="M 374.5,259.5 C 380.247,258.866 383.58,261.366 384.5,267C 380.886,274.397 377.386,281.897 374,289.5C 366.648,310.201 365.648,331.201 371,352.5C 373.246,358.568 375.079,364.734 376.5,371C 376.79,375.878 374.457,378.378 369.5,378.5C 367.407,378.514 365.574,377.848 364,376.5C 347.255,338.652 348.922,301.652 369,265.5C 370.36,262.977 372.193,260.977 374.5,259.5 Z"/></g>
<g><path style="opacity:1" fill="#eccf75" d="M 162.5,303.5 C 158.683,318.89 157.516,334.557 159,350.5C 161.066,364.43 164.233,378.097 168.5,391.5C 148.868,372.368 129.368,353.035 110,333.5C 100.548,316.817 103.381,302.65 118.5,291C 136.483,283.045 151.15,287.212 162.5,303.5 Z"/></g>
<g><path style="opacity:0.911" fill="#000000" d="M 70.5,365.5 C 74.1785,365.777 77.0118,367.444 79,370.5C 82.7177,387.878 92.2177,401.044 107.5,410C 113.478,412.321 119.311,414.821 125,417.5C 128.069,427.102 124.569,431.268 114.5,430C 84.9169,420.767 68.0836,400.933 64,370.5C 65.6027,367.965 67.7694,366.298 70.5,365.5 Z"/></g>
<g><path style="opacity:0.915" fill="#000000" d="M 14.5,370.5 C 18.2568,370.071 21.7568,370.737 25,372.5C 36.8068,422.972 67.6401,455.139 117.5,469C 122.446,473.3 122.779,477.967 118.5,483C 114.857,484.845 111.191,484.845 107.5,483C 55.2982,466.631 22.9649,431.798 10.5,378.5C 10.8922,375.299 12.2256,372.633 14.5,370.5 Z"/></g>
</svg>
